<svg width="380" height="109" viewBox="0 0 380 109" fill="none" xmlns="http://www.w3.org/2000/svg">
<mask id="mask0_636_16414" style="mask-type:luminance" maskUnits="userSpaceOnUse" x="0" y="0" width="380" height="109">
<path d="M379.023 0H0V109H379.023V0Z" fill="white"/>
</mask>
<g mask="url(#mask0_636_16414)">
<path d="M131.56 59.9463V107.309H155.785C165.954 107.309 171.672 101.96 171.672 93.3789C171.672 87.6955 168.67 84.0921 163.962 82.2348V81.9655C165.845 81.2304 167.446 79.9399 168.539 78.2747C169.633 76.6095 170.165 74.653 170.061 72.6787C170.061 64.9613 164.572 59.8349 154.813 59.8349L131.56 59.9463ZM141.09 79.4487V67.3758H152.526C157.205 67.3758 159.645 69.6233 159.645 73.4122C159.645 77.2013 157.205 79.4487 152.526 79.4487H141.09ZM141.09 99.8799V86.8782H153.326C158.406 86.8782 161.046 89.3207 161.046 93.3789C161.046 97.4374 158.406 99.8799 153.326 99.8799H141.09ZM205.504 101.505C204.551 101.505 203.989 101.171 203.989 99.4341V83.3863C203.989 76.6533 199.7 71.9357 189.617 71.9357C181.726 71.9357 175.923 75.8826 174.483 82.5784L182.832 83.8878C183.842 80.3496 186.434 78.6314 189.446 78.6314C193.258 78.6314 194.954 80.3216 194.954 82.9778C194.954 85.1045 193.306 86.1445 186.892 86.9804C178.133 88.0856 173.235 90.9273 173.235 98.5426C173.235 105.099 178.486 109 184.719 109C188.826 109 193.02 107.523 195.202 104.523H195.459C196.47 107.495 198.852 108.665 202.731 108.665C204.118 108.69 205.502 108.537 206.848 108.21V101.226C206.418 101.388 205.964 101.482 205.504 101.505ZM194.459 94.0756C194.459 99.8519 189.694 102.22 186.063 102.22C183.041 102.22 181.126 100.511 181.126 97.7253C181.126 94.4934 183.728 92.8682 187.054 92.3482C190.38 91.8282 193.363 91.4194 194.459 90.4257V94.0756ZM216.378 76.7092V72.0656H206.848V107.356H216.378V88.0577C216.378 81.7055 220.028 78.6128 224.002 78.6128C228.32 78.6128 230.673 80.6652 230.673 86.3768V107.309H240.204V84.0365C240.204 75.0746 234.543 71.1463 227.814 71.1463C225.628 71.0659 223.456 71.5303 221.505 72.4957C219.554 73.4608 217.888 74.895 216.664 76.6626L216.378 76.7092ZM252.593 95.8957L256.654 91.8282L267.07 107.356H278.277L263.191 85.5872L276.753 72.0192H265.696L252.593 85.708V59.0176H243.063V107.309H252.593V95.8957Z" fill="#243E90"/>
<path d="M155.185 0C141.023 0 131.112 9.28687 131.112 24.9537C131.112 40.6207 141.023 49.8984 155.185 49.8984C169.347 49.8984 179.268 40.6116 179.268 24.9537C179.268 9.29616 169.357 0 155.185 0ZM155.185 41.7908C147.294 41.7908 141.586 36.3488 141.586 24.9353C141.586 13.5217 147.304 8.07958 155.185 8.07958C163.067 8.07958 168.794 13.5124 168.794 24.9353C168.794 36.3581 163.086 41.7908 155.185 41.7908ZM201.95 50.1491C211.137 50.1491 217.96 42.8774 217.96 31.3988C217.96 19.9203 211.137 12.7137 201.759 12.7137C196.937 12.7137 192.744 14.3296 190.475 18.2023H190.628V13.5588H181.098V60.9219H190.628V45.1342H190.904C193.058 48.2918 196.784 50.1491 201.95 50.1491ZM199.243 19.781C204.675 19.781 208.154 23.6907 208.154 31.1388C208.154 38.5869 204.675 42.5245 199.243 42.5245C193.811 42.5245 190.38 38.6055 190.38 31.1388C190.38 23.6723 193.839 19.7346 199.243 19.7346V19.781ZM234.504 42.1996C231.875 42.1996 230.694 41.6702 230.694 38.8283V20.0132H238.317V13.5124H230.694V3.29684H221.162V13.5124H215.444V20.0132H221.162V40.8623C221.162 47.9109 224.517 49.917 231.875 49.917C234.05 49.9343 236.219 49.6561 238.317 49.0904V41.6609C237.063 41.9979 235.767 42.1637 234.466 42.153L234.504 42.1996ZM239.271 0.557213V8.9154H248.799V0.557213H239.271ZM239.271 13.5588V48.849H248.799V13.5588H239.271ZM295.86 12.6301C290.047 12.6301 286.559 15.1376 283.634 18.4902C281.556 14.4689 277.591 12.6301 273.149 12.6301C271.019 12.5921 268.912 13.0837 267.029 14.0585C265.147 15.0334 263.55 16.4595 262.39 18.2023H262.122V13.5588H252.594V48.849H262.122V29.5508C262.122 23.1986 265.506 20.1061 269.205 20.1061C273.17 20.1061 275.466 22.1585 275.466 27.8699V48.8025H284.996V29.5045C284.996 23.1986 288.35 20.1061 292.047 20.1061C296.021 20.1061 298.337 22.1585 298.337 27.8699V48.8025H307.868V25.5017C307.868 16.5213 302.311 12.593 295.812 12.593L295.86 12.6301ZM335.525 44.2054V48.849H345.055V13.5588H334.571V32.7733C334.571 39.0699 330.922 42.1437 326.948 42.1437C322.631 42.1437 320.276 40.0913 320.276 34.3986V13.5124H310.745V36.7852C310.745 45.7564 316.627 49.694 323.65 49.694C328.891 49.694 332.743 47.586 335.248 44.1218L335.525 44.2054ZM377.923 22.9572C376.82 16.7164 370.339 12.5744 361.857 12.5744C353.376 12.5744 346.322 16.6328 346.322 23.375C346.322 30.9717 352.44 32.9777 358.253 33.8879L362.218 34.5194C366.326 35.1879 369.051 36.191 369.051 38.6984C369.051 41.6516 366.335 43.4254 362.266 43.4254C357.767 43.4254 354.718 41.4752 353.85 37.2496L344.912 38.494C346.15 45.3849 352.669 49.6384 362.161 49.6384C371.653 49.6384 378.838 46.0629 378.838 38.3269C378.838 30.4237 372.53 28.5292 366.013 27.4519L362.304 26.8855C358.569 26.2726 355.928 25.5575 355.928 22.9942C355.928 20.4311 358.378 18.8152 361.866 18.8152C365.354 18.8152 368.261 20.6726 369.033 24.1181L377.923 22.9572Z" fill="#243E90"/>
<path fill-rule="evenodd" clip-rule="evenodd" d="M75.263 4.16766C82.5735 7.20038 89.1364 11.769 94.5011 17.5597C99.8657 23.3503 103.905 30.2259 106.341 37.7138C108.777 45.2018 109.552 53.1248 108.613 60.9385C107.674 68.7524 105.044 76.2716 100.902 82.9801C96.7605 89.6884 91.2061 95.4268 84.6202 99.8009C78.0346 104.175 70.5733 107.081 62.7496 108.32C54.9259 109.559 46.9248 109.101 39.2962 106.978C31.6676 104.854 24.5921 101.115 18.5558 96.0188C15.5361 93.1503 11.6508 84.6471 12.6856 77.9943C13.7204 71.3414 24.3977 71.687 30.7665 73.7896C23.852 77.4429 27.9443 86.0208 42.7231 90.4966C62.6667 96.542 87.3984 88.7024 96.3448 67.3795C105.997 44.328 93.8611 17.38 69.2424 7.20445C45.724 -2.50391 11.9519 10.4842 1.79199 38.3292C2.29372 36.7344 2.87383 35.1459 3.53235 33.5638C9.1267 20.2232 19.8237 9.63392 33.2733 4.12206C46.723 -1.38978 61.8256 -1.37338 75.263 4.16766Z" fill="#181C4B"/>
<path fill-rule="evenodd" clip-rule="evenodd" d="M75.263 4.16766C82.5735 7.20038 89.1364 11.769 94.5011 17.5597C99.8657 23.3503 103.905 30.2259 106.341 37.7138C108.777 45.2018 109.552 53.1248 108.613 60.9385C107.674 68.7524 105.044 76.2716 100.902 82.9801C96.7605 89.6884 91.2061 95.4268 84.6202 99.8009C78.0346 104.175 70.5733 107.081 62.7496 108.32C54.9259 109.559 46.9248 109.101 39.2962 106.978C31.6676 104.854 24.5921 101.115 18.5558 96.0188C15.5361 93.1503 11.6508 84.6471 12.6856 77.9943C13.7204 71.3414 24.3977 71.687 30.7665 73.7896C23.852 77.4429 27.9443 86.0208 42.7231 90.4966C62.6667 96.542 87.3984 88.7024 96.3448 67.3795C105.997 44.328 93.8611 17.38 69.2424 7.20445C45.724 -2.50391 11.9519 10.4842 1.79199 38.3292C2.29372 36.7344 2.87383 35.1459 3.53235 33.5638C9.1267 20.2232 19.8237 9.63392 33.2733 4.12206C46.723 -1.38978 61.8256 -1.37338 75.263 4.16766Z" fill="#243E90"/>
<path d="M18.0942 81.9906C18.0096 82.1214 17.9249 82.2708 17.8496 82.4112C17.2312 83.5037 16.7599 84.6725 16.4479 85.8871C16.803 84.5155 17.3576 83.203 18.0942 81.9906ZM74.7638 47.8291C68.762 52.8188 60.9351 53.5289 52.4779 53.5289C50.794 53.5289 49.0914 53.5289 47.3698 53.4728C45.6481 53.4167 43.908 53.4167 42.1581 53.4167C35.921 53.4167 29.5994 53.7812 23.6351 55.7995C5.94939 61.789 1.05759 80.8227 18.6022 96.0253C17.9111 95.1197 17.3507 94.1228 16.9371 93.0632C14.7881 90.2751 13.3139 87.0332 12.6286 83.5884C11.9886 80.1644 12.599 76.626 14.3501 73.609C15.6566 71.4256 17.4691 69.5835 19.637 68.2364C20.0791 67.956 20.5777 67.6944 21.0011 67.4514C24.6447 65.6808 28.5807 64.5792 32.6192 64.1998C37.0123 63.6484 41.462 63.499 45.874 63.1438C50.8649 62.8954 55.7987 61.9746 60.54 60.4061C66.3052 58.3962 71.2179 54.5108 74.4815 49.3803C74.5944 48.8757 74.7073 48.3523 74.8015 47.8291" fill="#56BA5F"/>
<path d="M18.0942 81.9906C18.0096 82.1214 17.9249 82.2708 17.8496 82.4112C17.2312 83.5037 16.7599 84.6725 16.4479 85.8871C16.803 84.5155 17.3576 83.203 18.0942 81.9906ZM74.7638 47.8291C68.762 52.8188 60.9351 53.5289 52.4779 53.5289C50.794 53.5289 49.0914 53.5289 47.3698 53.4728C45.6481 53.4167 43.908 53.4167 42.1581 53.4167C35.921 53.4167 29.5994 53.7812 23.6351 55.7995C5.94939 61.789 1.05759 80.8227 18.6022 96.0253C17.9111 95.1197 17.3507 94.1228 16.9371 93.0632C14.7881 90.2751 13.3139 87.0332 12.6286 83.5884C11.9886 80.1644 12.599 76.626 14.3501 73.609C15.6566 71.4256 17.4691 69.5835 19.637 68.2364C20.0791 67.956 20.5777 67.6944 21.0011 67.4514C24.6447 65.6808 28.5807 64.5792 32.6192 64.1998C37.0123 63.6484 41.462 63.499 45.874 63.1438C50.8649 62.8954 55.7987 61.9746 60.54 60.4061C66.3052 58.3962 71.2179 54.5108 74.4815 49.3803C74.5944 48.8757 74.7073 48.3523 74.8015 47.8291" fill="url(#paint0_linear_636_16414)"/>
<path d="M74.4449 49.3839C68.3772 76.5281 46.1948 70.5949 30.7104 73.7904C46.1948 70.5574 68.3395 76.4909 74.4449 49.3467" fill="#B9B6CA"/>
<path d="M16.4489 85.9401C15.8693 88.3099 16.0402 90.7997 16.9381 93.0696C16.5591 92.1038 16.3123 91.0917 16.2043 90.0608C16.0485 88.6835 16.1312 87.2897 16.4489 85.9401ZM21.6511 77.9418C20.2369 79.0956 19.0339 80.4833 18.0952 82.0436C19.0179 80.4258 20.2181 78.9809 21.6417 77.7735M30.7103 73.793C28.9997 74.1395 27.3268 74.6495 25.715 75.316C27.3236 74.6495 28.9934 74.1395 30.701 73.793" fill="#253885"/>
<path d="M74.4447 49.3839C71.1813 54.5146 66.2686 58.4 60.5031 60.41C55.7621 61.9782 50.8283 62.8992 45.8372 63.1477C41.4252 63.5026 36.9755 63.6523 32.5823 64.2036C28.5439 64.5831 24.6081 65.6846 20.9643 67.4552C20.5033 67.6982 20.0236 67.9598 19.6002 68.24C17.4324 69.5873 15.6198 71.4294 14.3133 73.6128C12.5622 76.6298 11.9518 80.1682 12.5918 83.5922C13.2883 87.0402 14.7755 90.2823 16.9379 93.067C16.0401 90.7971 15.8692 88.3074 16.4488 85.9375V85.8442C16.761 84.5927 17.242 83.389 17.8787 82.2654C17.9539 82.1252 18.0386 81.9756 18.1233 81.8448C19.0621 80.2845 20.2651 78.8968 21.6792 77.743H21.7263H21.7827H21.8392H21.8862H21.9521L22.0649 77.6681H22.112L23.3348 76.5935H23.3821L23.5042 76.5188L23.6359 76.4441L23.8146 76.3412L24.2756 76.0889L24.4639 75.9863L24.6049 75.9209H24.6519L24.7931 75.8555H24.8683H24.9342H24.9812H25.0377H25.0847L25.2164 75.7994C26.9693 74.9344 28.8112 74.2609 30.7103 73.7904C46.1946 70.5574 68.3396 76.4909 74.4447 49.3467" fill="url(#paint1_linear_636_16414)"/>
<path d="M74.4447 49.3839C71.1813 54.5146 66.2686 58.4 60.5031 60.41C55.7621 61.9782 50.8283 62.8992 45.8372 63.1477C41.4252 63.5026 36.9755 63.6523 32.5823 64.2036C28.5439 64.5831 24.6081 65.6846 20.9643 67.4552C20.5033 67.6982 20.0236 67.9598 19.6002 68.24C17.4324 69.5873 15.6198 71.4294 14.3133 73.6128C12.5622 76.6298 11.9518 80.1682 12.5918 83.5922C13.2883 87.0402 14.7755 90.2823 16.9379 93.067C16.0401 90.7971 15.8692 88.3074 16.4488 85.9375V85.8442C16.761 84.5927 17.242 83.389 17.8787 82.2654C17.9539 82.1252 18.0386 81.9756 18.1233 81.8448C19.0621 80.2845 20.2651 78.8968 21.6792 77.743H21.7263H21.7827H21.8392H21.8862H21.9521L22.0649 77.6681H22.112L23.3348 76.5935H23.3821L23.5042 76.5188L23.6359 76.4441L23.8146 76.3412L24.2756 76.0889L24.4639 75.9863L24.6049 75.9209H24.6519L24.7931 75.8555H24.8683H24.9342H24.9812H25.0377H25.0847L25.2164 75.7994C26.9693 74.9344 28.8112 74.2609 30.7103 73.7904C46.1946 70.5574 68.3396 76.4909 74.4447 49.3467" fill="url(#paint2_linear_636_16414)"/>
<path d="M74.4447 49.3839C71.1813 54.5146 66.2686 58.4 60.5031 60.41C55.7621 61.9782 50.8283 62.8992 45.8372 63.1477C41.4252 63.5026 36.9755 63.6523 32.5823 64.2036C28.5439 64.5831 24.6081 65.6846 20.9643 67.4552C20.5033 67.6982 20.0236 67.9598 19.6002 68.24C17.4324 69.5873 15.6198 71.4294 14.3133 73.6128C12.5622 76.6298 11.9518 80.1682 12.5918 83.5922C13.2883 87.0402 14.7755 90.2823 16.9379 93.067C16.0401 90.7971 15.8692 88.3074 16.4488 85.9375V85.8442C16.761 84.5927 17.242 83.389 17.8787 82.2654C17.9539 82.1252 18.0386 81.9756 18.1233 81.8448C19.0621 80.2845 20.2651 78.8968 21.6792 77.743H21.7263H21.7827H21.8392H21.8862H21.9521L22.0649 77.6681H22.112L23.3348 76.5935H23.3821L23.5042 76.5188L23.6359 76.4441L23.8146 76.3412L24.2756 76.0889L24.4639 75.9863L24.6049 75.9209H24.6519L24.7931 75.8555H24.8683H24.9342H24.9812H25.0377H25.0847L25.2164 75.7994C26.9693 74.9344 28.8112 74.2609 30.7103 73.7904C46.1946 70.5574 68.3396 76.4909 74.4447 49.3467" fill="#4B8E52"/>
<path d="M74.4447 49.3839C71.1813 54.5146 66.2686 58.4 60.5031 60.41C55.7621 61.9782 50.8283 62.8992 45.8372 63.1477C41.4252 63.5026 36.9755 63.6523 32.5823 64.2036C28.5439 64.5831 24.6081 65.6846 20.9643 67.4552C20.5033 67.6982 20.0236 67.9598 19.6002 68.24C17.4324 69.5873 15.6198 71.4294 14.3133 73.6128C12.5622 76.6298 11.9518 80.1682 12.5918 83.5922C13.2883 87.0402 14.7755 90.2823 16.9379 93.067C16.0401 90.7971 15.8692 88.3074 16.4488 85.9375V85.8442C16.761 84.5927 17.242 83.389 17.8787 82.2654C17.9539 82.1252 18.0386 81.9756 18.1233 81.8448C19.0621 80.2845 20.2651 78.8968 21.6792 77.743H21.7263H21.7827H21.8392H21.8862H21.9521L22.0649 77.6681H22.112L23.3348 76.5935H23.3821L23.5042 76.5188L23.6359 76.4441L23.8146 76.3412L24.2756 76.0889L24.4639 75.9863L24.6049 75.9209H24.6519L24.7931 75.8555H24.8683H24.9342H24.9812H25.0377H25.0847L25.2164 75.7994C26.9693 74.9344 28.8112 74.2609 30.7103 73.7904C46.1946 70.5574 68.3396 76.4909 74.4447 49.3467" fill="url(#paint3_linear_636_16414)"/>
<path d="M27.5022 78.2688C27.519 79.9188 28.1335 81.5074 29.233 82.7444C28.1287 81.5097 27.5106 79.9204 27.4927 78.2688" fill="#C7C4D4"/>
<path d="M30.7102 73.793C28.6408 74.905 27.5776 76.456 27.5117 78.2127C27.5326 77.6066 27.68 77.0116 27.9445 76.4653C28.5588 75.3065 29.5271 74.3709 30.7102 73.793Z" fill="#A6A3BC"/>
<path d="M27.5019 78.2562C15.9538 80.5013 16.5919 93.1787 18.6026 96.0095C18.6026 95.8413 16.8058 83.143 29.2422 82.7131C28.137 81.4789 27.5189 79.8891 27.5019 78.2373" fill="#253988"/>
<path d="M27.5019 78.2562C15.9538 80.5013 16.5919 93.1787 18.6026 96.0095C18.6026 95.8413 16.8058 83.143 29.2422 82.7131C28.137 81.4789 27.5189 79.8891 27.5019 78.2373" fill="#1A1D4E"/>
<path d="M27.5019 78.2562C15.9538 80.5013 16.5919 93.1787 18.6026 96.0095C18.6026 95.8413 16.8058 83.143 29.2422 82.7131C28.137 81.4789 27.5189 79.8891 27.5019 78.2373" fill="#E8F4E8"/>
<path d="M27.5019 78.2562C15.9538 80.5013 16.5919 93.1787 18.6026 96.0095C18.6026 95.8413 16.8058 83.143 29.2422 82.7131C28.137 81.4789 27.5189 79.8891 27.5019 78.2373" fill="#253988"/>
<path d="M28.5889 74.3813C27.9755 74.5305 26.9596 74.8852 25.8743 75.3394C24.186 76.0461 22.3293 76.9933 21.5563 77.7828C20.1942 78.9062 19.0277 80.2446 18.1038 81.7447L18.0568 81.8195C16.7416 83.9329 16.0295 86.3616 15.9966 88.8461C15.9966 89.2385 15.9966 89.6216 16.053 90.014C16.2762 92.2646 17.0635 94.1932 18.4519 95.9661C16.8432 93.1629 15.5215 81.6305 27.4405 78.603C27.53 76.4582 28.5889 75.0533 30.5779 73.793" fill="#D7ECD8"/>
<path d="M28.5889 74.3813C27.9755 74.5305 26.9596 74.8852 25.8743 75.3394C24.186 76.0461 22.3293 76.9933 21.5563 77.7828C20.1942 78.9062 19.0277 80.2446 18.1038 81.7447L18.0568 81.8195C16.7416 83.9329 16.0295 86.3616 15.9966 88.8461C15.9966 89.2385 15.9966 89.6216 16.053 90.014C16.2762 92.2646 17.0635 94.1932 18.4519 95.9661C16.8432 93.1629 15.5215 81.6305 27.4405 78.603C27.53 76.4582 28.5889 75.0533 30.5779 73.793" fill="#263581"/>
<path d="M81.8483 21.5732C75.9498 26.8432 66.7307 27.6282 56.4486 27.6282C54.2566 27.6282 52.0082 27.6282 49.741 27.5628C47.474 27.4974 45.1691 27.4879 42.8645 27.4879C31.1429 27.4879 19.2615 28.4223 10.0329 34.9071C0.945456 41.2423 -2.37532 52.4271 1.75448 70.1339C1.88619 69.5264 2.04611 68.9097 2.23425 68.265C2.05552 58.2109 4.36972 48.6427 13.9746 43.5129C22.0178 39.2147 32.3846 38.813 41.3403 38.495C46.9284 38.2988 52.6291 38.1962 58.1417 37.4486C63.2218 36.7665 68.3771 35.505 72.7984 32.7766C76.5471 30.4972 79.5829 27.226 81.5661 23.33C79.9009 33.6082 75.1784 42.3541 64.2659 45.6806C75.8088 42.1674 80.4277 32.543 81.8483 21.5732Z" fill="#56BA5F"/>
<path d="M81.8483 21.5732C75.9498 26.8432 66.7307 27.6282 56.4486 27.6282C54.2566 27.6282 52.0082 27.6282 49.741 27.5628C47.474 27.4974 45.1691 27.4879 42.8645 27.4879C31.1429 27.4879 19.2615 28.4223 10.0329 34.9071C0.945456 41.2423 -2.37532 52.4271 1.75448 70.1339C1.88619 69.5264 2.04611 68.9097 2.23425 68.265C2.05552 58.2109 4.36972 48.6427 13.9746 43.5129C22.0178 39.2147 32.3846 38.813 41.3403 38.495C46.9284 38.2988 52.6291 38.1962 58.1417 37.4486C63.2218 36.7665 68.3771 35.505 72.7984 32.7766C76.5471 30.4972 79.5829 27.226 81.5661 23.33C79.9009 33.6082 75.1784 42.3541 64.2659 45.6806C75.8088 42.1674 80.4277 32.543 81.8483 21.5732Z" fill="url(#paint4_linear_636_16414)"/>
<path d="M81.5654 23.3291C79.585 27.2322 76.5489 30.5099 72.7977 32.7946C68.3764 35.4858 63.2211 36.747 58.141 37.4666C52.5909 38.2142 46.9277 38.3168 41.3396 38.513C32.3839 38.8307 22.0171 39.2606 13.9738 43.5681C4.36898 48.6793 2.05478 58.2475 2.23352 68.3016L2.51575 67.4232C11.2928 39.2138 44.2183 50.4776 64.2841 45.7547C75.1777 42.3535 79.9002 33.6076 81.5654 23.3291Z" fill="url(#paint5_linear_636_16414)"/>
</g>
<defs>
<linearGradient id="paint0_linear_636_16414" x1="51.6313" y1="34.4859" x2="22.518" y2="107.402" gradientUnits="userSpaceOnUse">
<stop stop-color="#243E90"/>
<stop offset="1" stop-color="#75C485"/>
</linearGradient>
<linearGradient id="paint1_linear_636_16414" x1="55" y1="35.8352" x2="25.8866" y2="108.751" gradientUnits="userSpaceOnUse">
<stop stop-color="#253885"/>
<stop offset="0.03" stop-color="#273B85"/>
<stop offset="0.47" stop-color="#446E82"/>
<stop offset="0.81" stop-color="#568E81"/>
<stop offset="1" stop-color="#5D9A80"/>
</linearGradient>
<linearGradient id="paint2_linear_636_16414" x1="55.0152" y1="35.7673" x2="25.8489" y2="108.732" gradientUnits="userSpaceOnUse">
<stop stop-color="#22205F"/>
<stop offset="0.43" stop-color="#3F5B6F"/>
<stop offset="0.81" stop-color="#55897B"/>
<stop offset="1" stop-color="#5D9A80"/>
</linearGradient>
<linearGradient id="paint3_linear_636_16414" x1="55" y1="35.8352" x2="25.8866" y2="108.751" gradientUnits="userSpaceOnUse">
<stop stop-color="#253885"/>
<stop offset="0.03" stop-color="#273B85"/>
<stop offset="0.47" stop-color="#446E82"/>
<stop offset="0.81" stop-color="#568E81"/>
<stop offset="1" stop-color="#5D9A80"/>
</linearGradient>
<linearGradient id="paint4_linear_636_16414" x1="23.2502" y1="10.5847" x2="53.0816" y2="68.1312" gradientUnits="userSpaceOnUse">
<stop stop-color="#243E90"/>
<stop offset="1" stop-color="#75C485"/>
</linearGradient>
<linearGradient id="paint5_linear_636_16414" x1="23.353" y1="10.528" x2="53.1843" y2="68.0745" gradientUnits="userSpaceOnUse">
<stop stop-color="#253988"/>
<stop offset="0.08" stop-color="#2B4487"/>
<stop offset="0.5" stop-color="#497784"/>
<stop offset="0.82" stop-color="#5B9782"/>
<stop offset="1" stop-color="#62A381"/>
</linearGradient>
</defs>
</svg>
