<svg width="223" height="64" viewBox="0 0 223 64" fill="none" xmlns="http://www.w3.org/2000/svg">
<mask id="mask0_636_16414" style="mask-type:luminance" maskUnits="userSpaceOnUse" x="0" y="0" width="223" height="64">
<path d="M222.545 0H0V64H222.545V0Z" fill="white"/>
</mask>
<g mask="url(#mask0_636_16414)">
<path d="M77.2461 35.1977V63.0071H91.4704C97.4409 63.0071 100.798 59.8663 100.798 54.8278C100.798 51.4907 99.0357 49.375 96.2714 48.2845V48.1263C97.3772 47.6947 98.3169 46.937 98.959 45.9593C99.6012 44.9815 99.9136 43.8327 99.8526 42.6735C99.8526 38.1422 96.6296 35.1322 90.8996 35.1322L77.2461 35.1977ZM82.8417 46.6486V39.5599H89.5566C92.3041 39.5599 93.7366 40.8795 93.7366 43.1042C93.7366 45.329 92.3041 46.6486 89.5566 46.6486H82.8417ZM82.8417 58.6449V51.0109H90.0266C93.0092 51.0109 94.5592 52.445 94.5592 54.8278C94.5592 57.2107 93.0092 58.6449 90.0266 58.6449H82.8417ZM120.663 59.5991C120.104 59.5991 119.773 59.4027 119.773 58.3831V48.9606C119.773 45.0073 117.255 42.2373 111.335 42.2373C106.702 42.2373 103.294 44.5547 102.449 48.4862L107.351 49.255C107.944 47.1775 109.466 46.1687 111.234 46.1687C113.473 46.1687 114.469 47.1611 114.469 48.7207C114.469 49.9694 113.501 50.5801 109.735 51.0709C104.592 51.7198 101.716 53.3883 101.716 57.8597C101.716 61.7094 104.799 63.9995 108.459 63.9995C110.871 63.9995 113.333 63.1326 114.614 61.3713H114.765C115.358 63.1162 116.757 63.8033 119.035 63.8033C119.849 63.8179 120.662 63.7281 121.452 63.5361V59.4355C121.2 59.5302 120.933 59.5854 120.663 59.5991ZM114.178 55.2369C114.178 58.6285 111.38 60.019 109.248 60.019C107.474 60.019 106.349 59.0157 106.349 57.3798C106.349 55.4822 107.877 54.5279 109.83 54.2226C111.783 53.9173 113.534 53.6773 114.178 53.0938V55.2369ZM127.048 45.0401V42.3135H121.452V63.0343H127.048V51.7034C127.048 47.9737 129.191 46.1578 131.524 46.1578C134.06 46.1578 135.441 47.3629 135.441 50.7165V63.0071H141.037V49.3423C141.037 44.0803 137.713 41.7738 133.762 41.7738C132.479 41.7266 131.204 41.9993 130.058 42.5661C128.912 43.1327 127.934 43.9749 127.216 45.0127L127.048 45.0401ZM148.312 56.3055L150.696 53.9173L156.812 63.0343H163.392L154.534 50.2529L162.497 42.2863H156.005L148.312 50.3238V34.6523H142.716V63.0071H148.312V56.3055Z" fill="#243E90"/>
<path d="M91.1177 0C82.8025 0 76.9829 5.45284 76.9829 14.6517C76.9829 23.8507 82.8025 29.2981 91.1177 29.2981C99.4329 29.2981 105.258 23.8453 105.258 14.6517C105.258 5.45829 99.4385 0 91.1177 0ZM91.1177 24.5377C86.4845 24.5377 83.1326 21.3424 83.1326 14.6409C83.1326 7.93933 86.49 4.74397 91.1177 4.74397C95.7453 4.74397 99.1084 7.93388 99.1084 14.6409C99.1084 21.3479 95.7565 24.5377 91.1177 24.5377ZM118.576 29.4453C123.97 29.4453 127.977 25.1757 127.977 18.436C127.977 11.6963 123.97 7.46493 118.464 7.46493C115.632 7.46493 113.17 8.41373 111.839 10.6876H111.928V7.96115H106.332V35.7707H111.928V26.5008H112.09C113.355 28.3548 115.543 29.4453 118.576 29.4453ZM116.987 11.6145C120.176 11.6145 122.219 13.9101 122.219 18.2833C122.219 22.6565 120.176 24.9685 116.987 24.9685C113.797 24.9685 111.783 22.6675 111.783 18.2833C111.783 13.8993 113.814 11.5873 116.987 11.5873V11.6145ZM137.69 24.7777C136.146 24.7777 135.453 24.4669 135.453 22.7983V11.7509H139.929V7.93388H135.453V1.93576H129.857V7.93388H126.499V11.7509H129.857V23.9925C129.857 28.1312 131.826 29.3091 136.146 29.3091C137.424 29.3192 138.697 29.1559 139.929 28.8237V24.4615C139.193 24.6593 138.432 24.7567 137.668 24.7504L137.69 24.7777ZM140.489 0.327171V5.23473H146.084V0.327171H140.489ZM140.489 7.96115V28.682H146.084V7.96115H140.489ZM173.716 7.41587C170.302 7.41587 168.254 8.88813 166.537 10.8566C165.317 8.49552 162.989 7.41587 160.381 7.41587C159.13 7.39351 157.893 7.68215 156.788 8.25456C155.682 8.82697 154.745 9.66429 154.064 10.6876H153.906V7.96115H148.312V28.682H153.906V17.3509C153.906 13.6212 155.893 11.8054 158.065 11.8054C160.393 11.8054 161.741 13.0105 161.741 16.364V28.6547H167.337V17.3237C167.337 13.6212 169.306 11.8054 171.477 11.8054C173.81 11.8054 175.17 13.0105 175.17 16.364V28.6547H180.766V14.9735C180.766 9.7006 177.504 7.39405 173.688 7.39405L173.716 7.41587ZM197.005 25.9555V28.682H202.601V7.96115H196.445V19.2431C196.445 22.9401 194.302 24.7449 191.969 24.7449C189.434 24.7449 188.052 23.5399 188.052 20.1973V7.93388H182.456V21.5987C182.456 26.8661 185.909 29.1781 190.033 29.1781C193.11 29.1781 195.372 27.9404 196.842 25.9064L197.005 25.9555ZM221.9 13.4795C221.252 9.81512 217.446 7.38315 212.466 7.38315C207.486 7.38315 203.345 9.76604 203.345 13.7248C203.345 18.1852 206.937 19.3631 210.35 19.8975L212.678 20.2683C215.09 20.6608 216.69 21.2497 216.69 22.722C216.69 24.456 215.096 25.4975 212.706 25.4975C210.065 25.4975 208.274 24.3524 207.765 21.8713L202.517 22.602C203.244 26.648 207.072 29.1455 212.645 29.1455C218.218 29.1455 222.437 27.0461 222.437 22.5039C222.437 17.8635 218.733 16.7511 214.906 16.1185L212.729 15.786C210.536 15.4261 208.985 15.0063 208.985 13.5012C208.985 11.9963 210.424 11.0475 212.472 11.0475C214.52 11.0475 216.226 12.138 216.68 14.1611L221.9 13.4795Z" fill="#243E90"/>
<path fill-rule="evenodd" clip-rule="evenodd" d="M44.1912 2.44707C48.4836 4.22775 52.3371 6.91024 55.4869 10.3103C58.6368 13.7103 61.0084 17.7473 62.4387 22.1439C63.8689 26.5405 64.3241 31.1925 63.7729 35.7804C63.2217 40.3684 61.6772 44.7833 59.2455 48.7223C56.8136 52.6611 53.5523 56.0304 49.6853 58.5987C45.8185 61.1669 41.4376 62.8735 36.8439 63.6008C32.2501 64.3283 27.5523 64.0592 23.0731 62.8125C18.5939 61.5657 14.4395 59.3705 10.8952 56.378C9.12216 54.6937 6.84093 49.7011 7.44852 45.7948C8.05611 41.8885 14.3253 42.0915 18.0648 43.326C14.0049 45.4711 16.4077 50.5076 25.0852 53.1356C36.7952 56.6852 51.3165 52.0821 56.5695 39.5623C62.2367 26.0275 55.1112 10.2048 40.6561 4.23013C26.8472 -1.47019 7.01768 6.15585 1.05225 22.5052C1.34684 21.5688 1.68745 20.6361 2.07411 19.7072C5.35887 11.8742 11.6397 5.65661 19.5367 2.42029C27.4337 -0.816017 36.3013 -0.806386 44.1912 2.44707Z" fill="#181C4B"/>
<path fill-rule="evenodd" clip-rule="evenodd" d="M44.1912 2.44707C48.4836 4.22775 52.3371 6.91024 55.4869 10.3103C58.6368 13.7103 61.0084 17.7473 62.4387 22.1439C63.8689 26.5405 64.3241 31.1925 63.7729 35.7804C63.2217 40.3684 61.6772 44.7833 59.2455 48.7223C56.8136 52.6611 53.5523 56.0304 49.6853 58.5987C45.8185 61.1669 41.4376 62.8735 36.8439 63.6008C32.2501 64.3283 27.5523 64.0592 23.0731 62.8125C18.5939 61.5657 14.4395 59.3705 10.8952 56.378C9.12216 54.6937 6.84093 49.7011 7.44852 45.7948C8.05611 41.8885 14.3253 42.0915 18.0648 43.326C14.0049 45.4711 16.4077 50.5076 25.0852 53.1356C36.7952 56.6852 51.3165 52.0821 56.5695 39.5623C62.2367 26.0275 55.1112 10.2048 40.6561 4.23013C26.8472 -1.47019 7.01768 6.15585 1.05225 22.5052C1.34684 21.5688 1.68745 20.6361 2.07411 19.7072C5.35887 11.8742 11.6397 5.65661 19.5367 2.42029C27.4337 -0.816017 36.3013 -0.806386 44.1912 2.44707Z" fill="#243E90"/>
<path d="M10.624 48.1411C10.5743 48.2179 10.5246 48.3057 10.4804 48.3881C10.1173 49.0295 9.8406 49.7158 9.6574 50.429C9.86588 49.6237 10.1915 48.853 10.624 48.1411ZM43.8979 28.083C40.3739 31.0127 35.7783 31.4297 30.8126 31.4297C29.8239 31.4297 28.8242 31.4297 27.8134 31.3967C26.8024 31.3638 25.7807 31.3638 24.7532 31.3638C21.0911 31.3638 17.3794 31.5778 13.8774 32.7629C3.49311 36.2797 0.620866 47.4554 10.9223 56.3817C10.5165 55.8499 10.1875 55.2646 9.94462 54.6425C8.68281 53.0054 7.81721 51.1019 7.41484 49.0793C7.03906 47.0689 7.39748 44.9913 8.42565 43.2198C9.19274 41.9378 10.257 40.8562 11.5299 40.0653C11.7895 39.9006 12.0822 39.747 12.3308 39.6043C14.4702 38.5647 16.7812 37.9179 19.1524 37.6951C21.7319 37.3714 24.3446 37.2837 26.9351 37.0751C29.8655 36.9293 32.7624 36.3886 35.5463 35.4677C38.9314 34.2875 41.8159 32.0062 43.7322 28.9938C43.7984 28.6975 43.8647 28.3902 43.92 28.083" fill="#56BA5F"/>
<path d="M10.624 48.1411C10.5743 48.2179 10.5246 48.3057 10.4804 48.3881C10.1173 49.0295 9.8406 49.7158 9.6574 50.429C9.86588 49.6237 10.1915 48.853 10.624 48.1411ZM43.8979 28.083C40.3739 31.0127 35.7783 31.4297 30.8126 31.4297C29.8239 31.4297 28.8242 31.4297 27.8134 31.3967C26.8024 31.3638 25.7807 31.3638 24.7532 31.3638C21.0911 31.3638 17.3794 31.5778 13.8774 32.7629C3.49311 36.2797 0.620866 47.4554 10.9223 56.3817C10.5165 55.8499 10.1875 55.2646 9.94462 54.6425C8.68281 53.0054 7.81721 51.1019 7.41484 49.0793C7.03906 47.0689 7.39748 44.9913 8.42565 43.2198C9.19274 41.9378 10.257 40.8562 11.5299 40.0653C11.7895 39.9006 12.0822 39.747 12.3308 39.6043C14.4702 38.5647 16.7812 37.9179 19.1524 37.6951C21.7319 37.3714 24.3446 37.2837 26.9351 37.0751C29.8655 36.9293 32.7624 36.3886 35.5463 35.4677C38.9314 34.2875 41.8159 32.0062 43.7322 28.9938C43.7984 28.6975 43.8647 28.3902 43.92 28.083" fill="url(#paint0_linear_636_16414)"/>
<path d="M43.7107 28.9965C40.148 44.9343 27.1235 41.4506 18.0317 43.3269C27.1235 41.4286 40.1259 44.9125 43.7107 28.9746" fill="#B9B6CA"/>
<path d="M9.65786 50.4604C9.31758 51.8519 9.41789 53.3137 9.94509 54.6465C9.72257 54.0795 9.57766 53.4852 9.51425 52.8799C9.4228 52.0712 9.47137 51.2528 9.65786 50.4604ZM12.7124 45.7641C11.8821 46.4416 11.1757 47.2564 10.6245 48.1725C11.1663 47.2227 11.871 46.3743 12.7069 45.6653M18.0316 43.3281C17.0272 43.5316 16.0449 43.8311 15.0985 44.2224C16.043 43.8311 17.0234 43.5316 18.0261 43.3281" fill="#253885"/>
<path d="M43.7107 28.9965C41.7946 32.009 38.91 34.2903 35.5248 35.4705C32.7411 36.3913 29.8442 36.9321 26.9136 37.0779C24.3231 37.2863 21.7104 37.3742 19.131 37.6979C16.7598 37.9207 14.4488 38.5675 12.3094 39.6071C12.0387 39.7498 11.757 39.9034 11.5084 40.0679C10.2356 40.859 9.1713 41.9406 8.40421 43.2226C7.37603 44.9941 7.01762 47.0717 7.39339 49.0821C7.80235 51.1066 8.67558 53.0102 9.94527 54.6453C9.41807 53.3125 9.31777 51.8506 9.65806 50.4591V50.4043C9.84137 49.6695 10.1238 48.9627 10.4976 48.303C10.5418 48.2207 10.5915 48.1329 10.6412 48.0561C11.1925 47.1399 11.8988 46.3251 12.7292 45.6477H12.7568H12.7899H12.823H12.8507H12.8893L12.9556 45.6037H12.9832L13.7012 44.9727H13.729L13.8007 44.9289L13.878 44.885L13.983 44.8246L14.2536 44.6765L14.3642 44.6162L14.447 44.5778H14.4746L14.5575 44.5394H14.6016H14.6403H14.6679H14.7011H14.7287L14.806 44.5065C15.8352 43.9986 16.9167 43.6031 18.0318 43.3269C27.1235 41.4286 40.126 44.9125 43.7107 28.9746" fill="url(#paint1_linear_636_16414)"/>
<path d="M43.7107 28.9965C41.7946 32.009 38.91 34.2903 35.5248 35.4705C32.7411 36.3913 29.8442 36.9321 26.9136 37.0779C24.3231 37.2863 21.7104 37.3742 19.131 37.6979C16.7598 37.9207 14.4488 38.5675 12.3094 39.6071C12.0387 39.7498 11.757 39.9034 11.5084 40.0679C10.2356 40.859 9.1713 41.9406 8.40421 43.2226C7.37603 44.9941 7.01762 47.0717 7.39339 49.0821C7.80235 51.1066 8.67558 53.0102 9.94527 54.6453C9.41807 53.3125 9.31777 51.8506 9.65806 50.4591V50.4043C9.84137 49.6695 10.1238 48.9627 10.4976 48.303C10.5418 48.2207 10.5915 48.1329 10.6412 48.0561C11.1925 47.1399 11.8988 46.3251 12.7292 45.6477H12.7568H12.7899H12.823H12.8507H12.8893L12.9556 45.6037H12.9832L13.7012 44.9727H13.729L13.8007 44.9289L13.878 44.885L13.983 44.8246L14.2536 44.6765L14.3642 44.6162L14.447 44.5778H14.4746L14.5575 44.5394H14.6016H14.6403H14.6679H14.7011H14.7287L14.806 44.5065C15.8352 43.9986 16.9167 43.6031 18.0318 43.3269C27.1235 41.4286 40.126 44.9125 43.7107 28.9746" fill="url(#paint2_linear_636_16414)"/>
<path d="M43.7107 28.9965C41.7946 32.009 38.91 34.2903 35.5248 35.4705C32.7411 36.3913 29.8442 36.9321 26.9136 37.0779C24.3231 37.2863 21.7104 37.3742 19.131 37.6979C16.7598 37.9207 14.4488 38.5675 12.3094 39.6071C12.0387 39.7498 11.757 39.9034 11.5084 40.0679C10.2356 40.859 9.1713 41.9406 8.40421 43.2226C7.37603 44.9941 7.01762 47.0717 7.39339 49.0821C7.80235 51.1066 8.67558 53.0102 9.94527 54.6453C9.41807 53.3125 9.31777 51.8506 9.65806 50.4591V50.4043C9.84137 49.6695 10.1238 48.9627 10.4976 48.303C10.5418 48.2207 10.5915 48.1329 10.6412 48.0561C11.1925 47.1399 11.8988 46.3251 12.7292 45.6477H12.7568H12.7899H12.823H12.8507H12.8893L12.9556 45.6037H12.9832L13.7012 44.9727H13.729L13.8007 44.9289L13.878 44.885L13.983 44.8246L14.2536 44.6765L14.3642 44.6162L14.447 44.5778H14.4746L14.5575 44.5394H14.6016H14.6403H14.6679H14.7011H14.7287L14.806 44.5065C15.8352 43.9986 16.9167 43.6031 18.0318 43.3269C27.1235 41.4286 40.126 44.9125 43.7107 28.9746" fill="#4B8E52"/>
<path d="M43.7107 28.9965C41.7946 32.009 38.91 34.2903 35.5248 35.4705C32.7411 36.3913 29.8442 36.9321 26.9136 37.0779C24.3231 37.2863 21.7104 37.3742 19.131 37.6979C16.7598 37.9207 14.4488 38.5675 12.3094 39.6071C12.0387 39.7498 11.757 39.9034 11.5084 40.0679C10.2356 40.859 9.1713 41.9406 8.40421 43.2226C7.37603 44.9941 7.01762 47.0717 7.39339 49.0821C7.80235 51.1066 8.67558 53.0102 9.94527 54.6453C9.41807 53.3125 9.31777 51.8506 9.65806 50.4591V50.4043C9.84137 49.6695 10.1238 48.9627 10.4976 48.303C10.5418 48.2207 10.5915 48.1329 10.6412 48.0561C11.1925 47.1399 11.8988 46.3251 12.7292 45.6477H12.7568H12.7899H12.823H12.8507H12.8893L12.9556 45.6037H12.9832L13.7012 44.9727H13.729L13.8007 44.9289L13.878 44.885L13.983 44.8246L14.2536 44.6765L14.3642 44.6162L14.447 44.5778H14.4746L14.5575 44.5394H14.6016H14.6403H14.6679H14.7011H14.7287L14.806 44.5065C15.8352 43.9986 16.9167 43.6031 18.0318 43.3269C27.1235 41.4286 40.126 44.9125 43.7107 28.9746" fill="url(#paint3_linear_636_16414)"/>
<path d="M16.1482 45.9561C16.158 46.9249 16.5188 47.8577 17.1644 48.584C16.516 47.8591 16.1531 46.9259 16.1426 45.9561" fill="#C7C4D4"/>
<path d="M18.0318 43.3281C16.8167 43.9811 16.1925 44.8917 16.1538 45.9232C16.1661 45.5673 16.2526 45.218 16.4079 44.8972C16.7686 44.2168 17.3371 43.6675 18.0318 43.3281Z" fill="#A6A3BC"/>
<path d="M16.1477 45.9486C9.36715 47.2668 9.74183 54.7104 10.9224 56.3726C10.9224 56.2738 9.86742 48.8179 17.1695 48.5655C16.5206 47.8408 16.1577 46.9074 16.1477 45.9375" fill="#253988"/>
<path d="M16.1477 45.9486C9.36715 47.2668 9.74183 54.7104 10.9224 56.3726C10.9224 56.2738 9.86742 48.8179 17.1695 48.5655C16.5206 47.8408 16.1577 46.9074 16.1477 45.9375" fill="#1A1D4E"/>
<path d="M16.1477 45.9486C9.36715 47.2668 9.74183 54.7104 10.9224 56.3726C10.9224 56.2738 9.86742 48.8179 17.1695 48.5655C16.5206 47.8408 16.1577 46.9074 16.1477 45.9375" fill="#E8F4E8"/>
<path d="M16.1477 45.9486C9.36715 47.2668 9.74183 54.7104 10.9224 56.3726C10.9224 56.2738 9.86742 48.8179 17.1695 48.5655C16.5206 47.8408 16.1577 46.9074 16.1477 45.9375" fill="#253988"/>
<path d="M16.7862 43.6736C16.4261 43.7612 15.8296 43.9695 15.1924 44.2361C14.201 44.6511 13.1109 45.2072 12.657 45.6708C11.8572 46.3304 11.1723 47.1163 10.6298 47.9971L10.6022 48.0409C9.83002 49.2819 9.4119 50.7079 9.39258 52.1667C9.39258 52.3971 9.39258 52.622 9.42571 52.8524C9.55675 54.1739 10.019 55.3063 10.8342 56.3472C9.8897 54.7013 9.11363 47.93 16.112 46.1524C16.1645 44.8931 16.7862 44.0681 17.9541 43.3281" fill="#D7ECD8"/>
<path d="M16.7862 43.6736C16.4261 43.7612 15.8296 43.9695 15.1924 44.2361C14.201 44.6511 13.1109 45.2072 12.657 45.6708C11.8572 46.3304 11.1723 47.1163 10.6298 47.9971L10.6022 48.0409C9.83002 49.2819 9.4119 50.7079 9.39258 52.1667C9.39258 52.3971 9.39258 52.622 9.42571 52.8524C9.55675 54.1739 10.019 55.3063 10.8342 56.3472C9.8897 54.7013 9.11363 47.93 16.112 46.1524C16.1645 44.8931 16.7862 44.0681 17.9541 43.3281" fill="#263581"/>
<path d="M48.0577 12.667C44.5944 15.7613 39.1813 16.2222 33.1441 16.2222C31.8571 16.2222 30.5369 16.2222 29.2057 16.1838C27.8747 16.1454 26.5213 16.1398 25.1681 16.1398C18.2857 16.1398 11.3095 16.6885 5.89088 20.4961C0.55513 24.2158 -1.39468 30.783 1.03016 41.1797C1.10749 40.823 1.20139 40.4609 1.31186 40.0823C1.20691 34.179 2.56571 28.561 8.20525 25.549C12.9279 23.0253 19.0148 22.7894 24.2732 22.6027C27.5543 22.4875 30.9015 22.4273 34.1383 21.9883C37.1211 21.5878 40.148 20.8471 42.744 19.2451C44.9451 17.9067 46.7276 15.9861 47.892 13.6985C46.9143 19.7334 44.1415 24.8686 37.7341 26.8218C44.5116 24.759 47.2236 19.1079 48.0577 12.667Z" fill="#56BA5F"/>
<path d="M48.0577 12.667C44.5944 15.7613 39.1813 16.2222 33.1441 16.2222C31.8571 16.2222 30.5369 16.2222 29.2057 16.1838C27.8747 16.1454 26.5213 16.1398 25.1681 16.1398C18.2857 16.1398 11.3095 16.6885 5.89088 20.4961C0.55513 24.2158 -1.39468 30.783 1.03016 41.1797C1.10749 40.823 1.20139 40.4609 1.31186 40.0823C1.20691 34.179 2.56571 28.561 8.20525 25.549C12.9279 23.0253 19.0148 22.7894 24.2732 22.6027C27.5543 22.4875 30.9015 22.4273 34.1383 21.9883C37.1211 21.5878 40.148 20.8471 42.744 19.2451C44.9451 17.9067 46.7276 15.9861 47.892 13.6985C46.9143 19.7334 44.1415 24.8686 37.7341 26.8218C44.5116 24.759 47.2236 19.1079 48.0577 12.667Z" fill="url(#paint4_linear_636_16414)"/>
<path d="M47.8918 13.6982C46.729 15.99 44.9464 17.9145 42.7438 19.256C40.1478 20.8361 37.1209 21.5766 34.1381 21.9992C30.8793 22.4381 27.5541 22.4984 24.273 22.6136C19.0146 22.8001 12.9277 23.0525 8.20506 25.5817C2.56552 28.5828 1.20673 34.2008 1.31167 40.1041L1.47738 39.5884C6.63086 23.025 25.9633 29.6386 37.745 26.8656C44.1413 24.8685 46.9141 19.7333 47.8918 13.6982Z" fill="url(#paint5_linear_636_16414)"/>
</g>
<defs>
<linearGradient id="paint0_linear_636_16414" x1="30.3155" y1="20.2485" x2="13.2215" y2="63.0617" gradientUnits="userSpaceOnUse">
<stop stop-color="#243E90"/>
<stop offset="1" stop-color="#75C485"/>
</linearGradient>
<linearGradient id="paint1_linear_636_16414" x1="32.2936" y1="21.0413" x2="15.1995" y2="63.8545" gradientUnits="userSpaceOnUse">
<stop stop-color="#253885"/>
<stop offset="0.03" stop-color="#273B85"/>
<stop offset="0.47" stop-color="#446E82"/>
<stop offset="0.81" stop-color="#568E81"/>
<stop offset="1" stop-color="#5D9A80"/>
</linearGradient>
<linearGradient id="paint2_linear_636_16414" x1="32.3026" y1="21.0014" x2="15.1774" y2="63.8431" gradientUnits="userSpaceOnUse">
<stop stop-color="#22205F"/>
<stop offset="0.43" stop-color="#3F5B6F"/>
<stop offset="0.81" stop-color="#55897B"/>
<stop offset="1" stop-color="#5D9A80"/>
</linearGradient>
<linearGradient id="paint3_linear_636_16414" x1="32.2936" y1="21.0413" x2="15.1995" y2="63.8545" gradientUnits="userSpaceOnUse">
<stop stop-color="#253885"/>
<stop offset="0.03" stop-color="#273B85"/>
<stop offset="0.47" stop-color="#446E82"/>
<stop offset="0.81" stop-color="#568E81"/>
<stop offset="1" stop-color="#5D9A80"/>
</linearGradient>
<linearGradient id="paint4_linear_636_16414" x1="13.6515" y1="6.21503" x2="31.1672" y2="40.0038" gradientUnits="userSpaceOnUse">
<stop stop-color="#243E90"/>
<stop offset="1" stop-color="#75C485"/>
</linearGradient>
<linearGradient id="paint5_linear_636_16414" x1="13.7121" y1="6.18198" x2="31.2277" y2="39.9708" gradientUnits="userSpaceOnUse">
<stop stop-color="#253988"/>
<stop offset="0.08" stop-color="#2B4487"/>
<stop offset="0.5" stop-color="#497784"/>
<stop offset="0.82" stop-color="#5B9782"/>
<stop offset="1" stop-color="#62A381"/>
</linearGradient>
</defs>
</svg>
