<svg width="429" height="140" viewBox="0 0 429 140" fill="none" xmlns="http://www.w3.org/2000/svg">
<path d="M50.0619 100.42C53.2341 103.295 57.9924 112.613 0.0997061 119.85V129.366C0.000574729 129.366 76.1335 120.643 50.0619 100.42Z" fill="url(#paint0_linear_636_16435)"/>
<path d="M56.604 113.802C43.816 128.077 0 132.042 0 132.042V139.675C73.3572 129.762 56.604 113.802 56.604 113.802Z" fill="url(#paint1_linear_636_16435)"/>
<path d="M14.4732 32.416C15.5636 31.6229 17.6454 31.0281 19.3306 29.5411V113.605C23.8907 112.811 28.8472 112.018 32.3168 111.225V22.0072C33.209 21.4124 35.8856 19.628 37.1743 18.3393V109.838C43.4195 108.152 47.583 106.17 50.1604 103.89V0C36.0838 13.1845 19.1324 24.188 0 32.2177V116.479C4.85744 115.885 10.3097 115.29 14.374 114.596V32.416H14.4732Z" fill="url(#paint2_linear_636_16435)"/>
<path d="M79.0455 100V99.04L80.9655 98.368C83.1415 97.664 84.2295 95.84 84.2295 92.896V43.744C84.2295 42.464 84.0695 41.44 83.7495 40.672C83.4935 39.904 82.7575 39.264 81.5415 38.752L79.0455 37.6V36.64H97.5735L115.333 83.104L132.037 36.64H150.949V37.6L149.413 38.176C148.197 38.624 147.365 39.264 146.917 40.096C146.469 40.864 146.245 41.888 146.245 43.168V93.376C146.245 94.656 146.405 95.648 146.725 96.352C147.045 97.056 147.813 97.664 149.029 98.176L150.949 99.04V100H127.045V99.04L129.061 98.176C130.277 97.664 131.045 97.056 131.365 96.352C131.685 95.648 131.845 94.656 131.845 93.376V71.776L132.037 44.32L111.973 100H107.173L86.2455 44.992L86.5335 68.896V93.088C86.5335 94.496 86.7255 95.648 87.1095 96.544C87.5575 97.376 88.3895 97.984 89.6055 98.368L91.7175 99.04V100H79.0455ZM155.175 100V99.04L157.095 98.272C158.375 97.824 159.207 97.216 159.591 96.448C160.039 95.68 160.263 94.656 160.263 93.376V43.264C160.263 41.984 160.071 40.96 159.687 40.192C159.303 39.424 158.439 38.816 157.095 38.368L155.175 37.6V36.64H179.847V37.6L177.927 38.368C176.647 38.816 175.783 39.424 175.335 40.192C174.951 40.96 174.759 41.984 174.759 43.264V93.376C174.759 94.656 174.951 95.68 175.335 96.448C175.783 97.152 176.647 97.76 177.927 98.272L179.847 99.04V100H155.175ZM185.298 100V99.04L188.466 98.08C189.618 97.76 190.45 97.152 190.962 96.256C191.474 95.296 191.73 94.176 191.73 92.896V46.72C191.026 45.184 190.45 44.032 190.002 43.264C189.618 42.496 189.17 41.856 188.658 41.344C188.146 40.768 187.442 40.064 186.546 39.232L184.914 37.6V36.64H201.906L233.778 80.128V43.936C233.778 42.656 233.554 41.504 233.106 40.48C232.722 39.456 231.89 38.784 230.61 38.464L227.442 37.6V36.64H241.17V37.6L238.578 38.464C237.426 38.848 236.722 39.52 236.466 40.48C236.21 41.44 236.082 42.56 236.082 43.84V100.288H230.706L194.034 49.888V92.896C194.034 94.176 194.226 95.264 194.61 96.16C194.994 97.056 195.794 97.696 197.01 98.08L199.89 99.04V100H185.298ZM259.633 100V99.04L263.569 98.08C266.193 97.504 267.505 95.904 267.505 93.28V38.56H259.345C256.977 38.56 255.281 39.2 254.257 40.48C253.233 41.696 252.145 43.392 250.993 45.568L247.537 52.288H246.577L247.057 36.64H302.449L302.833 52.288H301.873L298.417 45.568C297.329 43.392 296.273 41.696 295.249 40.48C294.225 39.2 292.529 38.56 290.161 38.56H282.001V93.28C282.001 95.904 283.313 97.504 285.937 98.08L289.873 99.04V100H259.633ZM320.684 100V99.04L323.564 98.272C325.804 97.632 326.924 96.032 326.924 93.472V75.232L311.084 42.976C310.508 41.696 309.964 40.736 309.452 40.096C309.004 39.456 308.3 38.912 307.34 38.464L305.612 37.6V36.64H331.34V37.6L329.612 38.272C328.204 38.848 327.436 39.648 327.308 40.672C327.18 41.632 327.436 42.848 328.076 44.32L339.404 69.472L352.076 43.36C352.588 42.336 352.78 41.28 352.652 40.192C352.588 39.104 351.916 38.4 350.636 38.08L349.292 37.6V36.64H360.812V37.6L358.988 38.272C357.772 38.72 356.876 39.36 356.3 40.192C355.724 40.96 355.148 41.952 354.572 43.168L341.42 70.816V93.472C341.42 94.752 341.644 95.808 342.092 96.64C342.604 97.408 343.468 97.952 344.684 98.272L347.66 99.04V100H320.684ZM364.829 100V99.04L367.997 98.08C369.149 97.76 369.981 97.152 370.493 96.256C371.005 95.296 371.261 94.176 371.261 92.896V46.72C370.557 45.184 369.981 44.032 369.533 43.264C369.149 42.496 368.701 41.856 368.189 41.344C367.677 40.768 366.973 40.064 366.077 39.232L364.445 37.6V36.64H381.437L413.309 80.128V43.936C413.309 42.656 413.085 41.504 412.637 40.48C412.253 39.456 411.421 38.784 410.141 38.464L406.973 37.6V36.64H420.701V37.6L418.109 38.464C416.957 38.848 416.253 39.52 415.997 40.48C415.741 41.44 415.613 42.56 415.613 43.84V100.288H410.237L373.565 49.888V92.896C373.565 94.176 373.757 95.264 374.141 96.16C374.525 97.056 375.325 97.696 376.541 98.08L379.421 99.04V100H364.829Z" fill="#1D1D1D"/>
<defs>
<linearGradient id="paint0_linear_636_16435" x1="0.0343785" y1="114.878" x2="55.4695" y2="114.878" gradientUnits="userSpaceOnUse">
<stop stop-color="#D1A23C"/>
<stop offset="1" stop-color="#77502F"/>
</linearGradient>
<linearGradient id="paint1_linear_636_16435" x1="0.0338038" y1="126.711" x2="58.2921" y2="126.711" gradientUnits="userSpaceOnUse">
<stop stop-color="#D1A23C"/>
<stop offset="1" stop-color="#77502F"/>
</linearGradient>
<linearGradient id="paint2_linear_636_16435" x1="0.0358855" y1="58.2687" x2="50.1782" y2="58.2687" gradientUnits="userSpaceOnUse">
<stop stop-color="#D1A23C"/>
<stop offset="1" stop-color="#77502F"/>
</linearGradient>
</defs>
</svg>
