<svg width="200" height="66" viewBox="0 0 200 66" fill="none" xmlns="http://www.w3.org/2000/svg">
<path d="M23.3864 46.9111C24.8683 48.2541 27.0912 52.6072 0.0464319 55.9878V60.4335C0.000122399 60.4335 35.5658 56.3583 23.3864 46.9111Z" fill="url(#paint0_linear_636_16435)"/>
<path d="M26.4427 53.1621C20.4688 59.8307 0 61.6831 0 61.6831V65.2489C34.269 60.6179 26.4427 53.1621 26.4427 53.1621Z" fill="url(#paint1_linear_636_16435)"/>
<path d="M6.76118 15.1432C7.27058 14.7727 8.24309 14.4949 9.03035 13.8002V53.0707C11.1606 52.7002 13.4761 52.3297 15.0969 51.9593V10.2807C15.5137 10.0029 16.764 9.16928 17.3661 8.56726V51.3109C20.2836 50.5237 22.2286 49.5975 23.4326 48.5324V0C16.8566 6.15916 8.93773 11.2995 0 15.0506V54.4137C2.26917 54.1358 4.81619 53.858 6.71488 53.5338V15.1432H6.76118Z" fill="url(#paint2_linear_636_16435)"/>
<path d="M36.9262 47.2051V46.7566L37.8232 46.4427C38.8397 46.1138 39.348 45.2617 39.348 43.8864V20.9249C39.348 20.327 39.2732 19.8486 39.1237 19.4898C39.0041 19.1311 38.6603 18.8321 38.0922 18.5929L36.9262 18.0547V17.6063H45.5816L53.8783 39.3121L61.6816 17.6063H70.5164V18.0547L69.7988 18.3238C69.2308 18.5331 68.8421 18.8321 68.6328 19.2208C68.4235 19.5795 68.3189 20.0579 68.3189 20.6558V44.1107C68.3189 44.7086 68.3936 45.172 68.5431 45.5009C68.6926 45.8298 69.0514 46.1138 69.6195 46.353L70.5164 46.7566V47.2051H59.3496V46.7566L60.2913 46.353C60.8594 46.1138 61.2182 45.8298 61.3677 45.5009C61.5172 45.172 61.5919 44.7086 61.5919 44.1107V34.0202L61.6816 21.194L52.3086 47.2051H50.0663L40.2897 21.5079L40.4243 32.6748V43.9761C40.4243 44.6339 40.514 45.172 40.6934 45.5906C40.9026 45.9793 41.2913 46.2633 41.8594 46.4427L42.846 46.7566V47.2051H36.9262ZM72.4903 47.2051V46.7566L73.3873 46.3978C73.9852 46.1886 74.3739 45.9045 74.5533 45.5458C74.7626 45.187 74.8672 44.7086 74.8672 44.1107V20.7007C74.8672 20.1027 74.7775 19.6244 74.5981 19.2656C74.4187 18.9068 74.0151 18.6228 73.3873 18.4135L72.4903 18.0547V17.6063H84.0159V18.0547L83.119 18.4135C82.521 18.6228 82.1174 18.9068 81.9081 19.2656C81.7288 19.6244 81.6391 20.1027 81.6391 20.7007V44.1107C81.6391 44.7086 81.7288 45.187 81.9081 45.5458C82.1174 45.8746 82.521 46.1587 83.119 46.3978L84.0159 46.7566V47.2051H72.4903ZM86.5624 47.2051V46.7566L88.0423 46.3081C88.5805 46.1587 88.9692 45.8746 89.2083 45.4561C89.4475 45.0076 89.5671 44.4844 89.5671 43.8864V22.3152C89.2382 21.5976 88.9692 21.0595 88.7599 20.7007C88.5805 20.3419 88.3712 20.0429 88.132 19.8038C87.8928 19.5347 87.564 19.2058 87.1454 18.8171L86.383 18.0547V17.6063H94.3209L109.21 37.9218V21.0146C109.21 20.4167 109.105 19.8785 108.896 19.4001C108.717 18.9218 108.328 18.6078 107.73 18.4584L106.25 18.0547V17.6063H112.663V18.0547L111.452 18.4584C110.914 18.6377 110.585 18.9517 110.466 19.4001C110.346 19.8486 110.286 20.3718 110.286 20.9698V47.3396H107.775L90.6434 23.7951V43.8864C90.6434 44.4844 90.7331 44.9926 90.9125 45.4112C91.0919 45.8298 91.4656 46.1288 92.0337 46.3081L93.3791 46.7566V47.2051H86.5624ZM121.288 47.2051V46.7566L123.127 46.3081C124.353 46.0391 124.966 45.2916 124.966 44.0658V18.5032H121.154C120.047 18.5032 119.255 18.8022 118.777 19.4001C118.298 19.9682 117.79 20.7605 117.252 21.777L115.637 24.9163H115.189L115.413 17.6063H141.29L141.469 24.9163H141.021L139.406 21.777C138.898 20.7605 138.405 19.9682 137.926 19.4001C137.448 18.8022 136.656 18.5032 135.549 18.5032H131.737V44.0658C131.737 45.2916 132.35 46.0391 133.576 46.3081L135.415 46.7566V47.2051H121.288ZM149.808 47.2051V46.7566L151.154 46.3978C152.2 46.0989 152.723 45.3514 152.723 44.1555V35.6346L145.324 20.5662C145.055 19.9682 144.801 19.5197 144.561 19.2208C144.352 18.9218 144.023 18.6676 143.575 18.4584L142.768 18.0547V17.6063H154.786V18.0547L153.979 18.3687C153.321 18.6377 152.963 19.0115 152.903 19.4898C152.843 19.9383 152.963 20.5064 153.262 21.194L158.554 32.9438L164.473 20.7455C164.712 20.2672 164.802 19.7739 164.742 19.2656C164.712 18.7573 164.399 18.4285 163.801 18.279L163.173 18.0547V17.6063H168.554V18.0547L167.702 18.3687C167.134 18.578 166.716 18.8769 166.447 19.2656C166.177 19.6244 165.908 20.0878 165.639 20.6558L159.495 33.5717V44.1555C159.495 44.7535 159.6 45.2468 159.809 45.6354C160.048 45.9942 160.452 46.2483 161.02 46.3978L162.41 46.7566V47.2051H149.808ZM170.431 47.2051V46.7566L171.911 46.3081C172.449 46.1587 172.838 45.8746 173.077 45.4561C173.316 45.0076 173.436 44.4844 173.436 43.8864V22.3152C173.107 21.5976 172.838 21.0595 172.628 20.7007C172.449 20.3419 172.24 20.0429 172.001 19.8038C171.761 19.5347 171.432 19.2058 171.014 18.8171L170.252 18.0547V17.6063H178.189L193.078 37.9218V21.0146C193.078 20.4167 192.974 19.8785 192.765 19.4001C192.585 18.9218 192.197 18.6078 191.599 18.4584L190.119 18.0547V17.6063H196.532V18.0547L195.321 18.4584C194.783 18.6377 194.454 18.9517 194.334 19.4001C194.215 19.8486 194.155 20.3718 194.155 20.9698V47.3396H191.643L174.512 23.7951V43.8864C174.512 44.4844 174.602 44.9926 174.781 45.4112C174.96 45.8298 175.334 46.1288 175.902 46.3081L177.248 46.7566V47.2051H170.431Z" fill="#1D1D1D"/>
<defs>
<linearGradient id="paint0_linear_636_16435" x1="0.0159139" y1="53.6655" x2="25.9126" y2="53.6655" gradientUnits="userSpaceOnUse">
<stop stop-color="#D1A23C"/>
<stop offset="1" stop-color="#77502F"/>
</linearGradient>
<linearGradient id="paint1_linear_636_16435" x1="0.0157915" y1="59.1927" x2="27.2313" y2="59.1927" gradientUnits="userSpaceOnUse">
<stop stop-color="#D1A23C"/>
<stop offset="1" stop-color="#77502F"/>
</linearGradient>
<linearGradient id="paint2_linear_636_16435" x1="0.016764" y1="27.2204" x2="23.4409" y2="27.2204" gradientUnits="userSpaceOnUse">
<stop stop-color="#D1A23C"/>
<stop offset="1" stop-color="#77502F"/>
</linearGradient>
</defs>
</svg>
