<svg width="176" height="32" viewBox="0 0 176 32" fill="none" xmlns="http://www.w3.org/2000/svg">
<rect width="32" height="32" rx="4" fill="#EDE9FE"/>
<path d="M15.9998 27.1999C9.81492 27.1999 4.7998 22.1848 4.7998 15.9999H15.9998V27.1999Z" fill="#8B5CF6"/>
<path d="M4.7998 4.79993C10.9847 4.79993 15.9998 9.81504 15.9998 15.9999H4.7998V4.79993Z" fill="#A78BFA"/>
<path d="M16 27.1999C22.1849 27.1999 27.2 22.1848 27.2 15.9999H16V27.1999Z" fill="#8B5CF6"/>
<path d="M27.2 15.9999C27.2 9.81504 22.1849 4.79993 16 4.79993V15.9999H27.2Z" fill="#8B5CF6"/>
<path d="M44.4602 23.2202C43.7689 23.2202 43.1463 23.0971 42.5923 22.8509C42.0431 22.5999 41.6075 22.2306 41.2855 21.7429C40.9683 21.2552 40.8097 20.6539 40.8097 19.9389C40.8097 19.3234 40.9233 18.8144 41.1506 18.4119C41.3778 18.0095 41.688 17.6875 42.081 17.446C42.474 17.2045 42.9167 17.0223 43.4091 16.8991C43.9063 16.7713 44.42 16.679 44.9503 16.6222C45.5895 16.5559 46.108 16.4967 46.5057 16.4446C46.9034 16.3878 47.1922 16.3026 47.3722 16.1889C47.5568 16.0705 47.6491 15.8883 47.6491 15.642V15.5994C47.6491 15.0644 47.4905 14.6501 47.1733 14.3565C46.8561 14.063 46.3991 13.9162 45.8026 13.9162C45.1728 13.9162 44.6733 14.0535 44.304 14.3281C43.9394 14.6027 43.6932 14.9271 43.5653 15.3011L41.1648 14.9602C41.3542 14.2973 41.6667 13.7434 42.1023 13.2983C42.5379 12.8485 43.0705 12.5123 43.7003 12.2898C44.33 12.0625 45.026 11.9489 45.7884 11.9489C46.3139 11.9489 46.8371 12.0104 47.358 12.1335C47.8788 12.2566 48.3546 12.4602 48.7855 12.7443C49.2164 13.0237 49.562 13.4048 49.8224 13.8878C50.0876 14.3707 50.2202 14.9744 50.2202 15.6989V23H47.7486V21.5014H47.6634C47.5071 21.8045 47.2869 22.0885 47.0028 22.3537C46.7235 22.6141 46.3707 22.8248 45.9446 22.9858C45.5232 23.142 45.0284 23.2202 44.4602 23.2202ZM45.1278 21.331C45.6439 21.331 46.0914 21.2292 46.4702 21.0256C46.849 20.8172 47.1402 20.5426 47.3438 20.2017C47.5521 19.8608 47.6562 19.4891 47.6562 19.0866V17.8011C47.5758 17.8674 47.4384 17.929 47.2443 17.9858C47.0549 18.0426 46.8419 18.0923 46.6051 18.1349C46.3684 18.1776 46.134 18.2154 45.902 18.2486C45.67 18.2817 45.4688 18.3101 45.2983 18.3338C44.9148 18.3859 44.5715 18.4711 44.2685 18.5895C43.9654 18.7079 43.7263 18.8736 43.5511 19.0866C43.3759 19.295 43.2884 19.5649 43.2884 19.8963C43.2884 20.3698 43.4612 20.7273 43.8068 20.9688C44.1525 21.2102 44.5928 21.331 45.1278 21.331ZM61.7591 12.0909L57.8741 23H55.0332L51.1483 12.0909H53.8898L56.3969 20.1946H56.5105L59.0247 12.0909H61.7591ZM67.5967 23.2131C66.5029 23.2131 65.5583 22.9858 64.7629 22.5312C63.9721 22.072 63.3637 21.4233 62.9376 20.5852C62.5114 19.7424 62.2984 18.7505 62.2984 17.6094C62.2984 16.4872 62.5114 15.5024 62.9376 14.6548C63.3684 13.8026 63.9698 13.1397 64.7415 12.6662C65.5133 12.188 66.4201 11.9489 67.4617 11.9489C68.1341 11.9489 68.7685 12.0578 69.3651 12.2756C69.9665 12.4886 70.4968 12.8201 70.956 13.2699C71.4201 13.7197 71.7846 14.2926 72.0498 14.9886C72.3149 15.6799 72.4475 16.5038 72.4475 17.4602V18.2486H63.5058V16.5156H69.983C69.9783 16.0232 69.8718 15.5852 69.6634 15.2017C69.4551 14.8134 69.1639 14.508 68.7898 14.2855C68.4205 14.063 67.9897 13.9517 67.4972 13.9517C66.9717 13.9517 66.51 14.0795 66.1123 14.3352C65.7146 14.5862 65.4044 14.9176 65.1819 15.3295C64.9641 15.7367 64.8528 16.1842 64.8481 16.6719V18.1847C64.8481 18.8191 64.9641 19.3636 65.1961 19.8182C65.4281 20.268 65.7524 20.6136 66.1691 20.8551C66.5858 21.0919 67.0735 21.2102 67.6322 21.2102C68.0062 21.2102 68.3448 21.1581 68.6478 21.054C68.9508 20.9451 69.2136 20.7865 69.4362 20.5781C69.6587 20.3698 69.8268 20.1117 69.9404 19.804L72.341 20.0739C72.1895 20.7083 71.9006 21.2623 71.4745 21.7358C71.0531 22.2045 70.5133 22.5691 69.8552 22.8295C69.197 23.0852 68.4442 23.2131 67.5967 23.2131ZM74.2226 23V12.0909H76.7155V13.9091H76.8291C77.028 13.2794 77.3689 12.794 77.8518 12.4531C78.3395 12.1075 78.8959 11.9347 79.5209 11.9347C79.6629 11.9347 79.8215 11.9418 79.9967 11.956C80.1767 11.9654 80.3258 11.982 80.4442 12.0057V14.3707C80.3353 14.3329 80.1625 14.2997 79.9257 14.2713C79.6937 14.2382 79.4688 14.2216 79.251 14.2216C78.7822 14.2216 78.3608 14.3234 77.9868 14.527C77.6175 14.7259 77.3263 15.0028 77.1132 15.358C76.9001 15.7131 76.7936 16.1226 76.7936 16.5866V23H74.2226ZM87.7857 12.0909V14.0795H81.5143V12.0909H87.7857ZM83.0626 9.47727H85.6337V19.7188C85.6337 20.0644 85.6857 20.3295 85.7899 20.5142C85.8988 20.6941 86.0409 20.8172 86.2161 20.8835C86.3912 20.9498 86.5854 20.983 86.7984 20.983C86.9594 20.983 87.1062 20.9711 87.2388 20.9474C87.3761 20.9238 87.4803 20.9025 87.5513 20.8835L87.9845 22.8935C87.8472 22.9408 87.6507 22.9929 87.395 23.0497C87.1441 23.1065 86.8363 23.1397 86.4717 23.1491C85.8278 23.1681 85.2478 23.071 84.7317 22.858C84.2156 22.6402 83.806 22.304 83.503 21.8494C83.2047 21.3949 83.0579 20.8267 83.0626 20.1449V9.47727ZM89.5359 23V12.0909H92.1069V23H89.5359ZM90.8285 10.5426C90.4213 10.5426 90.0709 10.4077 89.7773 10.1378C89.4838 9.86316 89.337 9.53409 89.337 9.15057C89.337 8.76231 89.4838 8.43324 89.7773 8.16335C90.0709 7.88873 90.4213 7.75142 90.8285 7.75142C91.2404 7.75142 91.5908 7.88873 91.8796 8.16335C92.1732 8.43324 92.32 8.76231 92.32 9.15057C92.32 9.53409 92.1732 9.86316 91.8796 10.1378C91.5908 10.4077 91.2404 10.5426 90.8285 10.5426ZM98.399 23.1918C97.542 23.1918 96.775 22.9716 96.0979 22.5312C95.4208 22.0909 94.8857 21.4517 94.4928 20.6136C94.0998 19.7756 93.9033 18.7576 93.9033 17.5597C93.9033 16.3475 94.1021 15.3248 94.4999 14.4915C94.9023 13.6534 95.4445 13.0213 96.1263 12.5952C96.8081 12.1643 97.568 11.9489 98.4061 11.9489C99.0453 11.9489 99.5709 12.0578 99.9828 12.2756C100.395 12.4886 100.721 12.7467 100.963 13.0497C101.204 13.348 101.391 13.6297 101.524 13.8949H101.631V8.45455H104.209V23H101.68V21.2812H101.524C101.391 21.5464 101.2 21.8281 100.949 22.1264C100.698 22.42 100.366 22.6709 99.9544 22.8793C99.5425 23.0876 99.024 23.1918 98.399 23.1918ZM99.1163 21.0824C99.6608 21.0824 100.125 20.9356 100.508 20.642C100.892 20.3437 101.183 19.9295 101.382 19.3991C101.581 18.8688 101.68 18.2509 101.68 17.5455C101.68 16.84 101.581 16.2268 101.382 15.706C101.188 15.1851 100.899 14.7803 100.515 14.4915C100.137 14.2027 99.6703 14.0582 99.1163 14.0582C98.5434 14.0582 98.0652 14.2074 97.6817 14.5057C97.2982 14.804 97.0093 15.2159 96.8152 15.7415C96.6211 16.267 96.524 16.8684 96.524 17.5455C96.524 18.2273 96.6211 18.8357 96.8152 19.3707C97.0141 19.901 97.3053 20.3201 97.6888 20.6278C98.077 20.9309 98.5529 21.0824 99.1163 21.0824ZM111.378 23.2131C110.284 23.2131 109.34 22.9858 108.544 22.5312C107.753 22.072 107.145 21.4233 106.719 20.5852C106.293 19.7424 106.08 18.7505 106.08 17.6094C106.08 16.4872 106.293 15.5024 106.719 14.6548C107.15 13.8026 107.751 13.1397 108.523 12.6662C109.295 12.188 110.201 11.9489 111.243 11.9489C111.915 11.9489 112.55 12.0578 113.146 12.2756C113.748 12.4886 114.278 12.8201 114.737 13.2699C115.201 13.7197 115.566 14.2926 115.831 14.9886C116.096 15.6799 116.229 16.5038 116.229 17.4602V18.2486H107.287V16.5156H113.764C113.76 16.0232 113.653 15.5852 113.445 15.2017C113.236 14.8134 112.945 14.508 112.571 14.2855C112.202 14.063 111.771 13.9517 111.278 13.9517C110.753 13.9517 110.291 14.0795 109.894 14.3352C109.496 14.5862 109.186 14.9176 108.963 15.3295C108.745 15.7367 108.634 16.1842 108.629 16.6719V18.1847C108.629 18.8191 108.745 19.3636 108.977 19.8182C109.209 20.268 109.534 20.6136 109.95 20.8551C110.367 21.0919 110.855 21.2102 111.413 21.2102C111.787 21.2102 112.126 21.1581 112.429 21.054C112.732 20.9451 112.995 20.7865 113.217 20.5781C113.44 20.3698 113.608 20.1117 113.722 19.804L116.122 20.0739C115.971 20.7083 115.682 21.2623 115.256 21.7358C114.834 22.2045 114.295 22.5691 113.636 22.8295C112.978 23.0852 112.225 23.2131 111.378 23.2131ZM126.626 14.9744L124.282 15.2301C124.216 14.9934 124.1 14.7708 123.934 14.5625C123.773 14.3542 123.555 14.1861 123.281 14.0582C123.006 13.9304 122.67 13.8665 122.272 13.8665C121.737 13.8665 121.287 13.9825 120.923 14.2145C120.563 14.4465 120.385 14.7472 120.39 15.1165C120.385 15.4337 120.501 15.6918 120.738 15.8906C120.98 16.0895 121.377 16.2528 121.931 16.3807L123.792 16.7784C124.824 17.0009 125.591 17.3537 126.093 17.8366C126.6 18.3196 126.856 18.9517 126.86 19.733C126.856 20.4195 126.654 21.0256 126.257 21.5511C125.864 22.072 125.317 22.4792 124.616 22.7727C123.915 23.0663 123.11 23.2131 122.201 23.2131C120.866 23.2131 119.791 22.9337 118.977 22.375C118.162 21.8116 117.677 21.0279 117.521 20.0241L120.028 19.7827C120.142 20.2751 120.383 20.6468 120.752 20.8977C121.122 21.1487 121.602 21.2741 122.194 21.2741C122.805 21.2741 123.295 21.1487 123.664 20.8977C124.038 20.6468 124.225 20.3366 124.225 19.9673C124.225 19.6548 124.105 19.3968 123.863 19.1932C123.626 18.9896 123.257 18.8333 122.755 18.7244L120.894 18.3338C119.848 18.116 119.074 17.7491 118.572 17.233C118.07 16.7121 117.822 16.054 117.826 15.2585C117.822 14.5862 118.004 14.0038 118.373 13.5114C118.747 13.0142 119.266 12.6307 119.929 12.3608C120.596 12.0862 121.366 11.9489 122.237 11.9489C123.515 11.9489 124.521 12.2211 125.255 12.7656C125.994 13.3101 126.451 14.0464 126.626 14.9744ZM128.58 23V12.0909H131.151V23H128.58ZM129.873 10.5426C129.466 10.5426 129.115 10.4077 128.822 10.1378C128.528 9.86316 128.382 9.53409 128.382 9.15057C128.382 8.76231 128.528 8.43324 128.822 8.16335C129.115 7.88873 129.466 7.75142 129.873 7.75142C130.285 7.75142 130.635 7.88873 130.924 8.16335C131.218 8.43324 131.364 8.76231 131.364 9.15057C131.364 9.53409 131.218 9.86316 130.924 10.1378C130.635 10.4077 130.285 10.5426 129.873 10.5426ZM138.14 27.3182C137.216 27.3182 136.423 27.1927 135.76 26.9418C135.097 26.6955 134.565 26.3641 134.162 25.9474C133.76 25.5308 133.48 25.0691 133.324 24.5625L135.64 24.0014C135.744 24.2145 135.895 24.4252 136.094 24.6335C136.293 24.8466 136.56 25.0218 136.897 25.1591C137.238 25.3011 137.666 25.3722 138.182 25.3722C138.911 25.3722 139.515 25.1946 139.993 24.8395C140.471 24.4891 140.711 23.9115 140.711 23.1065V21.0398H140.583C140.45 21.3049 140.256 21.5772 140 21.8565C139.749 22.1359 139.416 22.3703 138.999 22.5597C138.587 22.7491 138.069 22.8438 137.444 22.8438C136.605 22.8438 135.846 22.6473 135.164 22.2543C134.487 21.8565 133.947 21.2647 133.544 20.4787C133.147 19.688 132.948 18.6984 132.948 17.5099C132.948 16.312 133.147 15.3011 133.544 14.4773C133.947 13.6487 134.489 13.0213 135.171 12.5952C135.853 12.1643 136.613 11.9489 137.451 11.9489C138.09 11.9489 138.615 12.0578 139.027 12.2756C139.444 12.4886 139.775 12.7467 140.022 13.0497C140.268 13.348 140.455 13.6297 140.583 13.8949H140.725V12.0909H143.26V23.1776C143.26 24.1103 143.038 24.8821 142.593 25.4929C142.148 26.1037 141.539 26.5606 140.767 26.8636C139.996 27.1667 139.12 27.3182 138.14 27.3182ZM138.161 20.8267C138.705 20.8267 139.169 20.6941 139.553 20.429C139.936 20.1638 140.228 19.7827 140.426 19.2855C140.625 18.7884 140.725 18.1918 140.725 17.4957C140.725 16.8092 140.625 16.2079 140.426 15.6918C140.232 15.1757 139.944 14.7756 139.56 14.4915C139.181 14.2027 138.715 14.0582 138.161 14.0582C137.588 14.0582 137.11 14.2074 136.726 14.5057C136.343 14.804 136.054 15.2135 135.86 15.7344C135.666 16.2505 135.569 16.8376 135.569 17.4957C135.569 18.1634 135.666 18.7481 135.86 19.25C136.059 19.7472 136.35 20.1354 136.733 20.4148C137.122 20.6894 137.597 20.8267 138.161 20.8267ZM148.066 16.608V23H145.495V12.0909H147.953V13.9446H148.08C148.331 13.3338 148.732 12.8485 149.281 12.4886C149.835 12.1288 150.519 11.9489 151.333 11.9489C152.086 11.9489 152.742 12.1098 153.301 12.4318C153.864 12.7538 154.3 13.2202 154.607 13.831C154.92 14.4418 155.074 15.1828 155.069 16.054V23H152.498V16.4517C152.498 15.7225 152.309 15.152 151.93 14.7401C151.556 14.3281 151.037 14.1222 150.375 14.1222C149.925 14.1222 149.525 14.2216 149.174 14.4205C148.829 14.6146 148.556 14.8963 148.357 15.2656C148.163 15.6349 148.066 16.0824 148.066 16.608ZM162.112 23.2131C161.019 23.2131 160.074 22.9858 159.278 22.5312C158.488 22.072 157.879 21.4233 157.453 20.5852C157.027 19.7424 156.814 18.7505 156.814 17.6094C156.814 16.4872 157.027 15.5024 157.453 14.6548C157.884 13.8026 158.485 13.1397 159.257 12.6662C160.029 12.188 160.936 11.9489 161.977 11.9489C162.65 11.9489 163.284 12.0578 163.881 12.2756C164.482 12.4886 165.012 12.8201 165.472 13.2699C165.936 13.7197 166.3 14.2926 166.565 14.9886C166.831 15.6799 166.963 16.5038 166.963 17.4602V18.2486H158.021V16.5156H164.499C164.494 16.0232 164.387 15.5852 164.179 15.2017C163.971 14.8134 163.68 14.508 163.305 14.2855C162.936 14.063 162.505 13.9517 162.013 13.9517C161.487 13.9517 161.026 14.0795 160.628 14.3352C160.23 14.5862 159.92 14.9176 159.698 15.3295C159.48 15.7367 159.368 16.1842 159.364 16.6719V18.1847C159.364 18.8191 159.48 19.3636 159.712 19.8182C159.944 20.268 160.268 20.6136 160.685 20.8551C161.101 21.0919 161.589 21.2102 162.148 21.2102C162.522 21.2102 162.86 21.1581 163.163 21.054C163.466 20.9451 163.729 20.7865 163.952 20.5781C164.174 20.3698 164.342 20.1117 164.456 19.804L166.857 20.0739C166.705 20.7083 166.416 21.2623 165.99 21.7358C165.569 22.2045 165.029 22.5691 164.371 22.8295C163.713 23.0852 162.96 23.2131 162.112 23.2131ZM168.738 23V12.0909H171.231V13.9091H171.345C171.544 13.2794 171.885 12.794 172.367 12.4531C172.855 12.1075 173.412 11.9347 174.037 11.9347C174.179 11.9347 174.337 11.9418 174.512 11.956C174.692 11.9654 174.841 11.982 174.96 12.0057V14.3707C174.851 14.3329 174.678 14.2997 174.441 14.2713C174.209 14.2382 173.984 14.2216 173.767 14.2216C173.298 14.2216 172.876 14.3234 172.502 14.527C172.133 14.7259 171.842 15.0028 171.629 15.358C171.416 15.7131 171.309 16.1226 171.309 16.5866V23H168.738Z" fill="white"/>
</svg>
