<svg width="223" height="65" viewBox="0 0 223 65" fill="none" xmlns="http://www.w3.org/2000/svg">
<mask id="mask0_636_16438" style="mask-type:alpha" maskUnits="userSpaceOnUse" x="0" y="-1" width="223" height="66">
<path d="M51.126 60.6826C43.8982 63.0693 36.8967 64.207 30.129 64.207C8.06504 64.207 0 50.5706 0 31.5537C0 11.1458 13.5345 0.106628 33.1885 0.106628C38.8435 0.106628 44.8693 0.941412 51.0807 2.42571L51.126 22.7113L38.1701 24.3543V12.3516C36.5939 12.0734 33.3736 11.8877 31.4272 11.8877C22.0639 11.8877 14.6471 17.5464 14.6471 31.5537C14.6471 47.5092 22.4347 51.9737 31.3344 51.9737C37.5193 51.9737 43.6994 50.5591 51.126 47.6299V60.6826Z" fill="#3200C8"/>
<path d="M75.4543 -0.000582829V63.1846H62.0117V1.72375L75.4543 -0.000582829Z" fill="#3200C8"/>
<path d="M108.835 42.961L102.068 43.8886C99.7501 44.2596 97.3397 45.2026 97.3397 49.0475C97.3397 52.4354 99.0086 53.7229 101.419 53.7229C103.829 53.7229 106.611 52.5171 108.835 51.0328V42.961ZM122.278 63.1853H109.948V58.732H109.577C106.239 61.4225 102.068 64.113 95.5784 64.0201C89.6454 63.9268 83.5264 59.8453 83.5264 50.94C83.5264 38.6933 93.0752 36.8381 100.862 35.7252L108.835 34.7047V34.5207C108.835 30.3463 107.259 28.6768 102.253 28.6768C97.0814 28.6768 91.9668 30.0306 86.3075 31.6449V20.5133C91.281 18.7501 98.0816 17.5447 103.737 17.5447C115.51 17.5447 122.278 22.3686 122.278 35.4483V63.1853Z" fill="#3200C8"/>
<path d="M160.832 63.1846V36.0047C160.832 31.2737 158.792 29.6037 155.732 29.6037C153.044 29.6037 149.707 30.7166 145.257 32.8499V63.1846H131.814V19.1211L143.368 17.624L144.237 23.0174C149.336 19.9564 153.878 17.5444 159.534 17.5444C167.228 17.5444 174.274 21.6259 174.274 33.8709V63.1846H160.832Z" fill="#3200C8"/>
<path d="M195.744 35.361H209.279V34.711C209.279 30.8152 207.425 27.7542 203.346 27.7542C198.618 27.7542 196.301 30.7224 195.744 35.361ZM195.651 43.7097C195.837 51.3164 200.287 52.8007 207.796 52.8007C212.06 52.8007 217.345 51.5021 221.331 50.0178V61.5208C215.305 63.3761 209.465 64.3037 204.273 64.3037C189.347 64.3037 181.189 56.8822 181.189 41.0196C181.189 28.6818 188.513 17.5502 203.346 17.5502C218.086 17.5502 223 27.5685 223 37.0305C223 40.1844 222.815 41.9472 222.536 43.7097H195.651Z" fill="#3200C8"/>
</mask>
<g mask="url(#mask0_636_16438)">
<rect x="-2.39746" y="-6.02539" width="229.247" height="69.8924" fill="#3200C8"/>
</g>
</svg>
