<svg width="290" height="84" viewBox="0 0 290 84" fill="none" xmlns="http://www.w3.org/2000/svg">
<mask id="mask0_636_16438" style="mask-type:alpha" maskUnits="userSpaceOnUse" x="0" y="0" width="290" height="84">
<path d="M66.4868 78.9147C57.0874 82.0185 47.9822 83.498 39.1812 83.498C10.4882 83.498 0 65.7646 0 41.0341C0 14.4947 17.6009 0.138793 43.1599 0.138793C50.514 0.138793 58.3502 1.22439 66.4278 3.15464L66.4868 29.535L49.6382 31.6717V16.0627C47.5885 15.701 43.4007 15.4595 40.8694 15.4595C28.693 15.4595 19.0479 22.8183 19.0479 41.0341C19.0479 61.7834 29.1751 67.5892 40.7487 67.5892C48.7918 67.5892 56.8288 65.7496 66.4868 61.9403V78.9147Z" fill="#3200C8"/>
<path d="M98.1239 -7.57634e-05V82.1689H80.6426V2.24233L98.1239 -7.57634e-05Z" fill="#3200C8"/>
<path d="M141.535 55.8694L132.734 57.0757C129.72 57.5582 126.585 58.7845 126.585 63.7846C126.585 68.1904 128.755 69.8647 131.89 69.8647C135.024 69.8647 138.641 68.2967 141.535 66.3664V55.8694ZM159.016 82.1702H142.981V76.3788H142.499C138.159 79.8777 132.734 83.3765 124.295 83.2558C116.579 83.1344 108.622 77.8267 108.622 66.2457C108.622 50.3196 121.039 47.9069 131.166 46.4596L141.535 45.1325V44.8933C141.535 39.4647 139.485 37.2936 132.974 37.2936C126.249 37.2936 119.598 39.0541 112.238 41.1535V26.6774C118.706 24.3844 127.55 22.8169 134.904 22.8169C150.214 22.8169 159.016 29.0901 159.016 46.0996V82.1702Z" fill="#3200C8"/>
<path d="M209.153 82.1689V46.8229C209.153 40.6704 206.5 38.4987 202.522 38.4987C199.026 38.4987 194.686 39.946 188.899 42.7203V82.1689H171.418V24.8667L186.443 22.9198L187.573 29.9336C194.204 25.9529 200.111 22.8163 207.466 22.8163C217.472 22.8163 226.634 28.1241 226.634 44.048V82.1689H209.153Z" fill="#3200C8"/>
<path d="M254.556 45.9855H272.157V45.1402C272.157 40.074 269.746 36.0933 264.441 36.0933C258.293 36.0933 255.279 39.9532 254.556 45.9855ZM254.435 56.8425C254.676 66.7347 260.463 68.665 270.229 68.665C275.774 68.665 282.646 66.9762 287.83 65.046V80.005C279.993 82.4177 272.398 83.624 265.647 83.624C246.237 83.624 235.628 73.9728 235.628 53.3442C235.628 37.2996 245.152 22.8235 264.441 22.8235C283.61 22.8235 290 35.8518 290 48.1567C290 52.2581 289.759 54.5506 289.397 56.8425H254.435Z" fill="#3200C8"/>
</mask>
<g mask="url(#mask0_636_16438)">
<rect x="-3.11768" y="-7.83594" width="298.124" height="90.8914" fill="#3200C8"/>
</g>
</svg>
