<svg width="476" height="147" viewBox="0 0 476 147" fill="none" xmlns="http://www.w3.org/2000/svg">
<path fill-rule="evenodd" clip-rule="evenodd" d="M97.7204 21.5488C110.225 21.5488 120.364 31.6873 120.364 44.1921C120.364 56.7012 110.225 66.8397 97.7204 66.8397C85.2113 66.8397 75.0728 56.7012 75.0728 44.1921C75.0728 31.6873 85.2113 21.5488 97.7204 21.5488Z" fill="white"/>
<path fill-rule="evenodd" clip-rule="evenodd" d="M210.391 112.795C210.391 104.717 205.034 99.0098 194.063 96.7277C182.825 94.3571 180.016 92.1637 180.016 88.5611C180.016 83.9084 183.437 80.8376 192.746 80.8376C199.327 80.8376 204.684 82.7696 208.371 86.7177H208.725V81.1877C208.725 76.1849 204.684 70.2117 190.637 70.2117C176.502 70.2117 168.074 79.6944 168.074 89.7044C168.074 97.871 173.865 102.962 184.053 105.156C196.783 107.881 198.365 109.72 198.365 113.85C198.365 118.675 195.467 121.751 186.423 121.751C179.134 121.751 173.692 118.853 169.651 115.254H169.39V120.607C169.39 127.719 175.624 132.461 187.739 132.461C202.313 132.461 210.391 124.649 210.391 112.795V112.795ZM218.31 85.929V114.377C218.31 125.437 224.101 131.938 236.043 131.938C242.894 131.938 246.403 128.863 246.403 124.033V119.819H245.965C244.121 120.962 241.223 121.489 237.448 121.489C232.707 121.489 229.986 119.118 229.986 112.972V94.4457H239.38C244.21 94.4457 246.403 91.2863 246.403 88.827V83.997H229.986V73.2869H227.265C225.422 73.2869 223.313 74.6916 221.731 76.5349C219.187 79.5171 218.31 81.2763 218.31 85.929V85.929ZM291.198 101.292C291.198 89.9658 282.065 82.9424 272.233 82.9424C258.709 82.9424 249.053 92.8638 249.053 108.67C249.053 123.155 260.552 132.461 272.321 132.461C285.313 132.461 289.439 127.808 289.439 121.751V118.064H289C285.225 121.573 279.429 122.539 274.515 122.539C267.576 122.539 262.134 118.764 261.257 112.795H268.98C284.613 112.795 291.198 109.986 291.198 101.292V101.292ZM280.133 99.8872C280.133 103.224 277.586 104.456 266.437 104.456H261.168L261.257 102.874C261.523 97.4323 265.471 92.7751 271.178 92.7751C276.62 92.7751 280.133 95.1458 280.133 99.8872V99.8872ZM325.362 95.5003V91.2863C325.362 87.6837 322.819 83.5583 315.53 83.5583C303.065 83.5583 298.057 92.6023 298.057 102.085V123.86C298.057 128.774 301.394 131.41 306.663 131.41H309.911V104.19C309.911 96.9936 312.809 94.0956 318.077 94.0956C321.148 94.0956 323.169 94.7958 324.924 95.5003H325.362ZM353.124 124.737V122.189H349.964C344.43 122.189 341.975 120.696 341.975 115.955V76.0962C341.975 71.6163 339.427 68.1911 333.542 68.1911H330.21V117.098C330.21 126.669 335.474 131.849 345.223 131.849C350.403 131.849 353.124 129.829 353.124 124.737V124.737ZM370.436 73.7256C370.436 69.9502 367.277 66.875 363.497 66.875C359.722 66.875 356.651 69.9502 356.651 73.7256C356.651 77.5009 359.722 80.6603 363.497 80.6603C367.277 80.6603 370.436 77.5009 370.436 73.7256ZM378.864 124.737V122.189H376.671C371.486 122.189 369.47 120.696 369.47 115.955V93.8298C369.47 87.861 366.311 85.0516 361.038 85.0516H357.705C357.705 85.0516 357.705 114.377 357.705 117.098C357.705 126.669 362.708 131.849 371.841 131.849C376.844 131.849 378.864 129.829 378.864 124.737ZM424.97 131.41V103.84C424.97 90.4045 415.754 82.9424 404.605 82.9424C389.853 82.9424 383.269 93.2138 383.269 103.224V123.683C383.269 128.074 386.517 131.41 391.524 131.41H395.033V104.017C395.033 97.2551 398.547 93.3911 403.639 93.3911C409.696 93.3911 413.206 96.905 413.206 104.894V123.683C413.206 128.074 416.542 131.41 421.811 131.41H424.97V131.41ZM475.645 111.741V103.663C475.645 91.5477 468.099 82.9424 456.33 82.9424C441.056 82.9424 432.277 93.7411 432.277 107.088C432.277 118.237 440.44 126.23 451.938 126.23C458.7 126.23 463.18 122.628 464.146 119.203V120.346C464.146 120.785 464.235 122.012 464.235 122.717C464.319 123.505 464.319 124.471 464.319 125.176C464.319 132.022 460.46 136.063 451.938 136.063C445.181 136.063 439.735 133.954 436.93 130.967H436.398V136.325C436.398 141.943 443.072 146.685 452.82 146.685C468.099 146.685 476 136.063 476 124.21C476 122.628 475.911 120.084 475.822 118.152C475.734 116.043 475.645 113.322 475.645 111.741V111.741ZM455.014 93.3911C460.194 93.3911 463.88 96.9936 463.88 104.367C463.88 111.918 459.666 116.309 453.786 116.309C448.168 116.309 444.392 111.741 444.392 105.595C444.392 98.4825 448.956 93.3911 455.014 93.3911Z" fill="#96989A"/>
<path fill-rule="evenodd" clip-rule="evenodd" d="M73.3402 0C113.85 0 146.685 32.8349 146.685 73.3402C146.685 113.85 113.85 146.685 73.3402 146.685C32.8349 146.685 0 113.85 0 73.3402C0 32.8349 32.8349 0 73.3402 0ZM97.623 22.98C109.459 22.98 119.057 32.5779 119.057 44.4136C119.057 56.2492 109.459 65.8471 97.623 65.8471C85.7829 65.8471 76.1894 56.2492 76.1894 44.4136C76.1894 32.5779 85.7829 22.98 97.623 22.98Z" fill="#DB353A"/>
</svg>
