<svg width="208" height="64" viewBox="0 0 208 64" fill="none" xmlns="http://www.w3.org/2000/svg">
<path fill-rule="evenodd" clip-rule="evenodd" d="M42.6363 9.40137C48.0922 9.40137 52.5158 13.8249 52.5158 19.2808C52.5158 24.7387 48.0922 29.1622 42.6363 29.1622C37.1784 29.1622 32.7549 24.7387 32.7549 19.2808C32.7549 13.8249 37.1784 9.40137 42.6363 9.40137Z" fill="white"/>
<path fill-rule="evenodd" clip-rule="evenodd" d="M91.7956 49.2131C91.7956 45.6886 89.4582 43.1985 84.6712 42.2028C79.7682 41.1684 78.5424 40.2114 78.5424 38.6396C78.5424 36.6096 80.035 35.2697 84.097 35.2697C86.968 35.2697 89.3054 36.1127 90.914 37.8353H91.0687V35.4225C91.0687 33.2397 89.3054 30.6336 83.1767 30.6336C77.0093 30.6336 73.332 34.7709 73.332 39.1384C73.332 42.7016 75.8589 44.923 80.3037 45.88C85.8583 47.069 86.5485 47.8714 86.5485 49.6733C86.5485 51.7787 85.2841 53.1205 81.3381 53.1205C78.1577 53.1205 75.7835 51.856 74.0203 50.2862H73.9062V52.6216C73.9062 55.7247 76.6265 57.7934 81.9123 57.7934C88.2711 57.7934 91.7956 54.3849 91.7956 49.2131V49.2131ZM95.2505 37.4912V49.9033C95.2505 54.729 97.7774 57.5653 102.988 57.5653C105.977 57.5653 107.508 56.2235 107.508 54.1161V52.2775H107.317C106.512 52.7763 105.248 53.0064 103.601 53.0064C101.532 53.0064 100.345 51.972 100.345 49.2905V41.2071H104.444C106.551 41.2071 107.508 39.8286 107.508 38.7556V36.6482H100.345V31.9753H99.1578C98.3536 31.9753 97.4333 32.5882 96.7431 33.3925C95.6333 34.6936 95.2505 35.4612 95.2505 37.4912V37.4912ZM127.052 44.1941C127.052 39.2525 123.068 36.1881 118.778 36.1881C112.877 36.1881 108.664 40.5169 108.664 47.4132C108.664 53.7333 113.681 57.7934 118.816 57.7934C124.485 57.7934 126.285 55.7634 126.285 53.1205V51.5119H126.093C124.446 53.0431 121.917 53.4646 119.773 53.4646C116.746 53.4646 114.371 51.8174 113.989 49.2131H117.358C124.179 49.2131 127.052 47.9874 127.052 44.1941V44.1941ZM122.225 43.5813C122.225 45.0371 121.113 45.5746 116.249 45.5746H113.95L113.989 44.8843C114.105 42.5102 115.827 40.4782 118.317 40.4782C120.692 40.4782 122.225 41.5126 122.225 43.5813V43.5813ZM141.959 41.6672V39.8286C141.959 38.2568 140.849 36.4568 137.668 36.4568C132.23 36.4568 130.045 40.4028 130.045 44.5402V54.0407C130.045 56.1848 131.501 57.3352 133.8 57.3352H135.217V45.4586C135.217 42.3188 136.481 41.0544 138.78 41.0544C140.12 41.0544 141.002 41.3598 141.767 41.6672H141.959ZM154.071 54.4235V53.3119H152.693C150.278 53.3119 149.207 52.6603 149.207 50.5916V33.2011C149.207 31.2464 148.095 29.7519 145.528 29.7519H144.074V51.0904C144.074 55.2665 146.37 57.5266 150.624 57.5266C152.884 57.5266 154.071 56.645 154.071 54.4235V54.4235ZM161.625 32.1667C161.625 30.5195 160.246 29.1777 158.597 29.1777C156.95 29.1777 155.61 30.5195 155.61 32.1667C155.61 33.8139 156.95 35.1924 158.597 35.1924C160.246 35.1924 161.625 33.8139 161.625 32.1667ZM165.302 54.4235V53.3119H164.345C162.083 53.3119 161.203 52.6603 161.203 50.5916V40.9384C161.203 38.3341 159.825 37.1084 157.524 37.1084H156.07C156.07 37.1084 156.07 49.9033 156.07 51.0904C156.07 55.2665 158.253 57.5266 162.238 57.5266C164.42 57.5266 165.302 56.645 165.302 54.4235ZM185.419 57.3352V45.3058C185.419 39.4439 181.397 36.1881 176.533 36.1881C170.097 36.1881 167.224 40.6696 167.224 45.0371V53.9634C167.224 55.8794 168.641 57.3352 170.826 57.3352H172.357V45.3832C172.357 42.4328 173.89 40.747 176.111 40.747C178.754 40.747 180.285 42.2801 180.285 45.766V53.9634C180.285 55.8794 181.741 57.3352 184.04 57.3352H185.419V57.3352ZM207.528 48.753V45.2285C207.528 39.9427 204.236 36.1881 199.101 36.1881C192.437 36.1881 188.607 40.8997 188.607 46.723C188.607 51.5873 192.168 55.0751 197.185 55.0751C200.135 55.0751 202.09 53.5033 202.511 52.0088V52.5076C202.511 52.699 202.55 53.2345 202.55 53.5419C202.587 53.8861 202.587 54.3075 202.587 54.6149C202.587 57.602 200.903 59.3652 197.185 59.3652C194.237 59.3652 191.86 58.4449 190.637 57.1418H190.405V59.4793C190.405 61.9308 193.316 63.9995 197.57 63.9995C204.236 63.9995 207.683 59.3652 207.683 54.1935C207.683 53.5033 207.644 52.3935 207.606 51.5506C207.567 50.6303 207.528 49.4432 207.528 48.753V48.753ZM198.527 40.747C200.787 40.747 202.395 42.3188 202.395 45.5359C202.395 48.8303 200.557 50.7463 197.991 50.7463C195.54 50.7463 193.892 48.753 193.892 46.0714C193.892 42.9684 195.884 40.747 198.527 40.747Z" fill="#96989A"/>
<path fill-rule="evenodd" clip-rule="evenodd" d="M31.999 0C49.6738 0 64 14.3262 64 31.999C64 49.6738 49.6738 64 31.999 64C14.3262 64 0 49.6738 0 31.999C0 14.3262 14.3262 0 31.999 0ZM42.5938 10.0264C47.7578 10.0264 51.9455 14.2141 51.9455 19.3781C51.9455 24.5421 47.7578 28.7297 42.5938 28.7297C37.4279 28.7297 33.2422 24.5421 33.2422 19.3781C33.2422 14.2141 37.4279 10.0264 42.5938 10.0264Z" fill="#DB353A"/>
</svg>
